<svg width="34" height="47" viewBox="0 0 34 47" fill="none" xmlns="http://www.w3.org/2000/svg">
<path d="M7.02745 5.52373C8.24393 5.87005 9.46041 6.10092 10.6769 6.44724C11.8934 6.79355 13.1099 7.02443 14.3263 7.37074C14.6581 7.48618 14.7687 7.37074 14.8793 7.02442C15.3217 5.06198 15.764 3.21498 16.2064 1.25253C16.317 0.90622 16.4275 0.790782 16.7593 0.906219C17.8652 1.25253 18.8605 1.48341 19.9664 1.71428C20.2982 1.82972 20.2982 1.94516 20.1876 2.17604C19.7452 4.02304 19.3029 5.98549 18.8605 7.83249C18.8605 7.94793 18.8605 8.06337 18.7499 8.29424C19.6346 8.52512 20.6299 8.75599 21.5147 8.98687C21.6253 8.98687 21.7358 8.75599 21.8464 8.64055C22.1782 7.13986 22.51 5.75461 22.9523 4.25392C23.0629 3.79216 23.1735 3.33041 23.2841 2.86866C23.2841 2.63779 23.3947 2.52235 23.6159 2.63779C24.7218 2.9841 25.8277 3.21498 27.0441 3.56129C27.1547 3.56129 27.1547 3.67673 27.2653 3.67673C26.9335 5.17742 26.6018 6.56267 26.27 7.94793C26.1594 8.52512 26.0488 9.10231 25.8277 9.6795C25.7171 10.0258 25.8277 10.1412 26.1594 10.2567C27.3759 10.8339 28.5924 11.4111 29.8089 11.9883C30.9148 12.6809 31.9101 13.6044 32.6842 14.7588C33.6795 16.4903 33.7901 18.3373 33.3477 20.1843C33.016 21.4542 32.5736 22.6085 31.6889 23.532C31.0254 24.2247 30.1406 24.6864 29.2559 25.0327C29.1453 25.0327 29.0347 25.1482 28.8136 25.1482C29.2559 25.4945 29.6983 25.7254 30.1406 26.0717C31.4677 27.1106 32.3524 28.3804 32.7948 29.9966C33.016 31.2664 32.9054 32.6516 32.5736 33.9214C32.1313 35.5376 31.5783 36.9228 30.583 38.1926C29.3665 39.6933 27.8183 40.5014 26.0488 40.7323C23.7265 41.0786 21.5147 40.8477 19.3029 40.5014C18.9711 40.386 18.7499 40.5014 18.6393 40.8477C18.197 42.6947 17.7546 44.6572 17.3123 46.5042C17.2017 46.9659 17.2017 47.0814 16.6487 46.8505C15.6534 46.6196 14.5475 46.2733 13.5522 46.0424C13.2205 45.927 13.2205 45.8115 13.331 45.5807C13.7734 43.6182 14.2158 41.6558 14.7687 39.8088C14.7687 39.5779 14.8793 39.4625 14.6581 39.347C13.7734 39.1162 12.8887 38.8853 11.8934 38.6544C11.6722 39.6933 11.3404 40.7323 11.1193 41.7712C10.8981 42.8102 10.5663 43.8491 10.3451 44.888C10.2345 45.1189 10.2345 45.2344 9.90277 45.1189C8.79688 44.7726 7.69098 44.5417 6.58509 44.3109C6.25332 44.1954 6.25332 44.08 6.36391 43.8491C6.80627 41.8867 7.24862 39.9242 7.80157 38.0772C7.80157 37.9618 7.91216 37.8463 7.91216 37.6155C5.3686 36.9228 2.82505 36.2302 0.170898 35.5376C0.392077 35.0758 0.502667 34.7295 0.723846 34.2678C1.1662 33.2288 1.60856 32.1899 1.94033 31.2664C2.05092 30.9201 2.16151 30.9201 2.49328 30.9201C3.2674 31.1509 4.15212 31.3818 4.92625 31.4973C5.81096 31.7281 6.4745 31.2664 6.58509 30.4583C8.02275 24.571 9.46041 18.6836 10.7875 12.6809C11.0087 11.7574 10.4557 10.7184 9.46041 10.3721C8.46511 10.0258 7.4698 9.79493 6.58509 9.56406C6.36391 9.56406 6.25332 9.44862 6.36391 9.21774C6.69568 7.94793 7.02744 6.56267 7.35921 5.29286C6.91685 5.63917 6.91686 5.63917 7.02745 5.52373ZM12.6675 34.0369C12.7781 34.0369 12.8887 34.1523 12.8887 34.1523C14.6581 34.6141 16.5381 35.1913 18.4182 35.3067C19.7452 35.4221 20.9617 35.4221 22.1782 34.9604C24.2794 34.2678 25.1641 31.3818 23.9476 29.5348C23.3947 28.6113 22.51 28.0341 21.6253 27.4569C19.6346 26.3025 17.3123 25.8408 15.1005 25.379C14.7687 25.2636 14.7687 25.379 14.6581 25.7254C14.4369 26.8797 14.1052 27.9187 13.884 29.0731C13.4416 30.6892 13.1099 32.3053 12.6675 34.0369ZM21.957 22.2622C22.1782 22.2622 22.7311 22.1468 23.1735 22.0313C25.2747 21.5696 26.3806 19.03 25.2747 17.0675C24.7218 16.0286 23.7265 15.336 22.7311 14.8742C21.1829 14.1816 19.6346 13.8353 17.9758 13.3735C17.644 13.2581 17.5334 13.3735 17.4229 13.7198C16.8699 16.144 16.317 18.4528 15.6534 20.877C15.5428 21.1078 15.6534 21.2233 15.8746 21.3387C16.317 21.4542 16.6487 21.5696 17.0911 21.685C18.7499 21.9159 20.1876 22.2622 21.957 22.2622Z" fill="white"/>
</svg>
