<svg width="143" height="97" viewBox="0 0 143 97" fill="none" xmlns="http://www.w3.org/2000/svg">
<path d="M32 13L27 10.1132V15.8868L32 13ZM0 13.5H27.5V12.5H0V13.5Z" fill="white"/>
<path d="M32 51L27 48.1132V53.8868L32 51ZM0 51.5H27.5V50.5H0V51.5Z" fill="white"/>
<path d="M32 89L27 86.1132V91.8868L32 89ZM0 89.5H27.5V88.5H0V89.5Z" fill="white"/>
<path d="M143 13L138 10.1132V15.8868L143 13ZM111 13.5H138.5V12.5H111V13.5Z" fill="white"/>
<path d="M143 51L138 48.1132V53.8868L143 51ZM111 51.5H138.5V50.5H111V51.5Z" fill="white"/>
<path d="M143 89L138 86.1132V91.8868L143 89ZM111 89.5H138.5V88.5H111V89.5Z" fill="white"/>
<line x1="39" y1="13.5" x2="103" y2="13.5" stroke="#2D2D2D"/>
<line x1="39.2553" y1="13.5701" x2="103.255" y2="51.5701" stroke="#2D2D2D"/>
<line x1="39.2553" y1="51.5701" x2="103.255" y2="89.5701" stroke="#2D2D2D"/>
<line x1="39" y1="89.5" x2="103" y2="89.5" stroke="#2D2D2D"/>
<circle cx="39.5" cy="13.5" r="7.5" fill="#715BF8"/>
<circle cx="39.5" cy="51.5" r="7.5" fill="#715BF8"/>
<circle cx="39.5" cy="89.5" r="7.5" fill="#715BF8"/>
<circle cx="103.5" cy="89.5" r="7.5" fill="#715BF8"/>
<circle cx="103.5" cy="51.5" r="7.5" fill="#715BF8"/>
<circle cx="103.5" cy="13.5" r="7.5" fill="#715BF8"/>
<path d="M119.292 2.1C117.762 2.1 116.912 3.36 116.912 5.62C116.912 7.88 117.762 9.15 119.292 9.15C120.822 9.15 121.672 7.88 121.672 5.62C121.672 3.36 120.822 2.1 119.292 2.1ZM119.292 3.02C120.142 3.02 120.652 3.99 120.652 5.62C120.652 7.25 120.142 8.23 119.292 8.23C118.442 8.23 117.932 7.25 117.932 5.62C117.932 3.99 118.442 3.02 119.292 3.02ZM122.286 7.81V9H122.806L122.276 10.43H122.766L123.476 9V7.81H122.286ZM126.46 2.1C124.93 2.1 124.08 3.36 124.08 5.62C124.08 7.88 124.93 9.15 126.46 9.15C127.99 9.15 128.84 7.88 128.84 5.62C128.84 3.36 127.99 2.1 126.46 2.1ZM126.46 3.02C127.31 3.02 127.82 3.99 127.82 5.62C127.82 7.25 127.31 8.23 126.46 8.23C125.61 8.23 125.1 7.25 125.1 5.62C125.1 3.99 125.61 3.02 126.46 3.02ZM132.224 4.56C131.714 4.56 131.214 4.73 130.914 5H130.894L131.084 3.19H133.744V2.25H130.294L129.944 5.95H130.814C131.044 5.61 131.494 5.4 131.974 5.4C132.764 5.4 133.264 5.93 133.264 6.78C133.264 7.68 132.764 8.23 131.934 8.23C131.244 8.23 130.774 7.93 130.424 7.24L129.594 7.75C129.994 8.65 130.824 9.15 131.934 9.15C133.394 9.15 134.284 8.24 134.284 6.76C134.284 5.43 133.474 4.56 132.224 4.56Z" fill="white"/>
<path d="M119.282 40.1C117.752 40.1 116.902 41.36 116.902 43.62C116.902 45.88 117.752 47.15 119.282 47.15C120.812 47.15 121.662 45.88 121.662 43.62C121.662 41.36 120.812 40.1 119.282 40.1ZM119.282 41.02C120.132 41.02 120.642 41.99 120.642 43.62C120.642 45.25 120.132 46.23 119.282 46.23C118.432 46.23 117.922 45.25 117.922 43.62C117.922 41.99 118.432 41.02 119.282 41.02ZM122.276 45.81V47H122.796L122.266 48.43H122.756L123.466 47V45.81H122.276ZM126.45 40.1C124.92 40.1 124.07 41.36 124.07 43.62C124.07 45.88 124.92 47.15 126.45 47.15C127.98 47.15 128.83 45.88 128.83 43.62C128.83 41.36 127.98 40.1 126.45 40.1ZM126.45 41.02C127.3 41.02 127.81 41.99 127.81 43.62C127.81 45.25 127.3 46.23 126.45 46.23C125.6 46.23 125.09 45.25 125.09 43.62C125.09 41.99 125.6 41.02 126.45 41.02ZM131.974 47.15C133.374 47.15 134.344 46.19 134.344 44.81C134.344 43.45 133.474 42.51 132.214 42.51C131.694 42.51 131.284 42.7 130.894 43.12L130.864 43.1L133.344 40.2H132.124L130.944 41.6C129.954 42.75 129.584 43.61 129.584 44.72C129.584 46.19 130.524 47.15 131.974 47.15ZM131.964 46.23C131.124 46.23 130.594 45.68 130.594 44.82C130.594 43.96 131.124 43.4 131.954 43.4C132.794 43.4 133.324 43.95 133.324 44.81C133.324 45.67 132.794 46.23 131.964 46.23Z" fill="white"/>
<path d="M119.031 78.1C117.501 78.1 116.651 79.36 116.651 81.62C116.651 83.88 117.501 85.15 119.031 85.15C120.561 85.15 121.411 83.88 121.411 81.62C121.411 79.36 120.561 78.1 119.031 78.1ZM119.031 79.02C119.881 79.02 120.391 79.99 120.391 81.62C120.391 83.25 119.881 84.23 119.031 84.23C118.181 84.23 117.671 83.25 117.671 81.62C117.671 79.99 118.181 79.02 119.031 79.02ZM122.025 83.81V85H122.545L122.015 86.43H122.505L123.215 85V83.81H122.025ZM126.26 78.1C124.99 78.1 124.17 78.82 124.13 79.97H125.11C125.13 79.36 125.54 79.02 126.24 79.02C126.93 79.02 127.31 79.37 127.31 80C127.31 80.68 126.85 81.03 125.95 81.03H125.63V81.91H125.95C127.07 81.89 127.54 82.23 127.54 83.06C127.54 83.83 127.13 84.23 126.34 84.23C125.58 84.23 125.1 83.85 125.05 83.19H124.07C124.11 84.42 124.95 85.15 126.34 85.15C127.73 85.15 128.57 84.38 128.57 83.12C128.57 82.13 128.05 81.52 127.12 81.41V81.39C127.88 81.21 128.33 80.62 128.33 79.83C128.33 78.79 127.51 78.1 126.26 78.1ZM133.338 85V84.06H130.548L132.268 82.15C133.048 81.28 133.348 80.68 133.348 79.98C133.348 78.81 132.578 78.1 131.308 78.1C129.998 78.1 129.168 78.88 129.138 80.13H130.118C130.138 79.44 130.578 79.02 131.268 79.02C131.918 79.02 132.328 79.41 132.328 80.03C132.328 80.49 132.098 80.91 131.448 81.64L129.118 84.28V85H133.338Z" fill="white"/>
<path d="M12.0429 2.1C10.5129 2.1 9.66289 3.36 9.66289 5.62C9.66289 7.88 10.5129 9.15 12.0429 9.15C13.5729 9.15 14.4229 7.88 14.4229 5.62C14.4229 3.36 13.5729 2.1 12.0429 2.1ZM12.0429 3.02C12.8929 3.02 13.4029 3.99 13.4029 5.62C13.4029 7.25 12.8929 8.23 12.0429 8.23C11.1929 8.23 10.6829 7.25 10.6829 5.62C10.6829 3.99 11.1929 3.02 12.0429 3.02ZM15.0366 7.81V9H15.5566L15.0266 10.43H15.5166L16.2266 9V7.81H15.0366ZM17.2285 2.25V3.23H17.6485V9H18.6285V2.25H17.2285ZM20.3828 2.25V3.23H20.8028V9H21.7828V2.25H20.3828Z" fill="white"/>
<path d="M10.8779 40.1C9.34785 40.1 8.49785 41.36 8.49785 43.62C8.49785 45.88 9.34785 47.15 10.8779 47.15C12.4079 47.15 13.2579 45.88 13.2579 43.62C13.2579 41.36 12.4079 40.1 10.8779 40.1ZM10.8779 41.02C11.7279 41.02 12.2379 41.99 12.2379 43.62C12.2379 45.25 11.7279 46.23 10.8779 46.23C10.0279 46.23 9.51785 45.25 9.51785 43.62C9.51785 41.99 10.0279 41.02 10.8779 41.02ZM13.8715 45.81V47H14.3915L13.8615 48.43H14.3515L15.0615 47V45.81H13.8715ZM20.1362 47V46.06H17.3462L19.0662 44.15C19.8462 43.28 20.1462 42.68 20.1462 41.98C20.1462 40.81 19.3762 40.1 18.1062 40.1C16.7962 40.1 15.9662 40.88 15.9362 42.13H16.9162C16.9362 41.44 17.3762 41.02 18.0662 41.02C18.7162 41.02 19.1262 41.41 19.1262 42.03C19.1262 42.49 18.8962 42.91 18.2462 43.64L15.9162 46.28V47H20.1362ZM20.5514 40.25V41.2H23.7014L21.0014 47H22.0414L24.7514 41.1V40.25H20.5514Z" fill="white"/>
<path d="M10.2919 78.1C8.76191 78.1 7.91191 79.36 7.91191 81.62C7.91191 83.88 8.76191 85.15 10.2919 85.15C11.8219 85.15 12.6719 83.88 12.6719 81.62C12.6719 79.36 11.8219 78.1 10.2919 78.1ZM10.2919 79.02C11.1419 79.02 11.6519 79.99 11.6519 81.62C11.6519 83.25 11.1419 84.23 10.2919 84.23C9.44191 84.23 8.93191 83.25 8.93191 81.62C8.93191 79.99 9.44191 79.02 10.2919 79.02ZM13.2856 83.81V85H13.8056L13.2756 86.43H13.7656L14.4756 85V83.81H13.2856ZM17.4599 78.1C15.9299 78.1 15.0799 79.36 15.0799 81.62C15.0799 83.88 15.9299 85.15 17.4599 85.15C18.9899 85.15 19.8399 83.88 19.8399 81.62C19.8399 79.36 18.9899 78.1 17.4599 78.1ZM17.4599 79.02C18.3099 79.02 18.8199 79.99 18.8199 81.62C18.8199 83.25 18.3099 84.23 17.4599 84.23C16.6099 84.23 16.0999 83.25 16.0999 81.62C16.0999 79.99 16.6099 79.02 17.4599 79.02ZM23.2239 80.56C22.7139 80.56 22.2139 80.73 21.9139 81H21.8939L22.0839 79.19H24.7439V78.25H21.2939L20.9439 81.95H21.8139C22.0439 81.61 22.4939 81.4 22.9739 81.4C23.7639 81.4 24.2639 81.93 24.2639 82.78C24.2639 83.68 23.7639 84.23 22.9339 84.23C22.2439 84.23 21.7739 83.93 21.4239 83.24L20.5939 83.75C20.9939 84.65 21.8239 85.15 22.9339 85.15C24.3939 85.15 25.2839 84.24 25.2839 82.76C25.2839 81.43 24.4739 80.56 23.2239 80.56Z" fill="white"/>
</svg>
