<svg width="143" height="98" viewBox="0 0 143 98" fill="none" xmlns="http://www.w3.org/2000/svg">
<g clip-path="url(#clip0_21_92)">
<path d="M32 13.5L27 10.6132V16.3868L32 13.5ZM0 14H27.5V13H0V14Z" fill="white"/>
<path d="M32 51.5L27 48.6132V54.3868L32 51.5ZM0 52H27.5V51H0V52Z" fill="white"/>
<path d="M32 89.5L27 86.6132V92.3868L32 89.5ZM0 90H27.5V89H0V90Z" fill="white"/>
<path d="M11.0429 2.60001C9.51284 2.60001 8.66284 3.86001 8.66284 6.12001C8.66284 8.38001 9.51284 9.65001 11.0429 9.65001C12.5729 9.65001 13.4229 8.38001 13.4229 6.12001C13.4229 3.86001 12.5729 2.60001 11.0429 2.60001ZM11.0429 3.52001C11.8929 3.52001 12.4029 4.49001 12.4029 6.12001C12.4029 7.75001 11.8929 8.73001 11.0429 8.73001C10.1929 8.73001 9.68284 7.75001 9.68284 6.12001C9.68284 4.49001 10.1929 3.52001 11.0429 3.52001ZM14.0366 8.31001V9.50001H14.5566L14.0266 10.93H14.5166L15.2266 9.50001V8.31001H14.0366ZM16.2285 2.75001V3.73001H16.6485V9.50001H17.6285V2.75001H16.2285ZM19.3828 2.75001V3.73001H19.8028V9.50001H20.7828V2.75001H19.3828Z" fill="white"/>
<path d="M9.8778 40.6C8.3478 40.6 7.4978 41.86 7.4978 44.12C7.4978 46.38 8.3478 47.65 9.8778 47.65C11.4079 47.65 12.2579 46.38 12.2579 44.12C12.2579 41.86 11.4079 40.6 9.8778 40.6ZM9.8778 41.52C10.7279 41.52 11.2379 42.49 11.2379 44.12C11.2379 45.75 10.7279 46.73 9.8778 46.73C9.0278 46.73 8.5178 45.75 8.5178 44.12C8.5178 42.49 9.0278 41.52 9.8778 41.52ZM12.8715 46.31V47.5H13.3915L12.8615 48.93H13.3515L14.0615 47.5V46.31H12.8715ZM19.1362 47.5V46.56H16.3462L18.0662 44.65C18.8462 43.78 19.1462 43.18 19.1462 42.48C19.1462 41.31 18.3762 40.6 17.1062 40.6C15.7962 40.6 14.9662 41.38 14.9362 42.63H15.9162C15.9362 41.94 16.3762 41.52 17.0662 41.52C17.7162 41.52 18.1262 41.91 18.1262 42.53C18.1262 42.99 17.8962 43.41 17.2462 44.14L14.9162 46.78V47.5H19.1362ZM19.5514 40.75V41.7H22.7014L20.0014 47.5H21.0414L23.7514 41.6V40.75H19.5514Z" fill="white"/>
<path d="M9.29187 78.6C7.76187 78.6 6.91187 79.86 6.91187 82.12C6.91187 84.38 7.76187 85.65 9.29187 85.65C10.8219 85.65 11.6719 84.38 11.6719 82.12C11.6719 79.86 10.8219 78.6 9.29187 78.6ZM9.29187 79.52C10.1419 79.52 10.6519 80.49 10.6519 82.12C10.6519 83.75 10.1419 84.73 9.29187 84.73C8.44187 84.73 7.93187 83.75 7.93187 82.12C7.93187 80.49 8.44187 79.52 9.29187 79.52ZM12.2856 84.31V85.5H12.8056L12.2756 86.93H12.7656L13.4756 85.5V84.31H12.2856ZM16.4599 78.6C14.9299 78.6 14.0799 79.86 14.0799 82.12C14.0799 84.38 14.9299 85.65 16.4599 85.65C17.9899 85.65 18.8399 84.38 18.8399 82.12C18.8399 79.86 17.9899 78.6 16.4599 78.6ZM16.4599 79.52C17.3099 79.52 17.8199 80.49 17.8199 82.12C17.8199 83.75 17.3099 84.73 16.4599 84.73C15.6099 84.73 15.0999 83.75 15.0999 82.12C15.0999 80.49 15.6099 79.52 16.4599 79.52ZM22.2239 81.06C21.7139 81.06 21.2139 81.23 20.9139 81.5H20.8939L21.0839 79.69H23.7439V78.75H20.2939L19.9439 82.45H20.8139C21.0439 82.11 21.4939 81.9 21.9739 81.9C22.7639 81.9 23.2639 82.43 23.2639 83.28C23.2639 84.18 22.7639 84.73 21.9339 84.73C21.2439 84.73 20.7739 84.43 20.4239 83.74L19.5939 84.25C19.9939 85.15 20.8239 85.65 21.9339 85.65C23.3939 85.65 24.2839 84.74 24.2839 83.26C24.2839 81.93 23.4739 81.06 22.2239 81.06Z" fill="white"/>
<path d="M119.292 2.60001C117.762 2.60001 116.912 3.86001 116.912 6.12001C116.912 8.38001 117.762 9.65001 119.292 9.65001C120.822 9.65001 121.672 8.38001 121.672 6.12001C121.672 3.86001 120.822 2.60001 119.292 2.60001ZM119.292 3.52001C120.142 3.52001 120.652 4.49001 120.652 6.12001C120.652 7.75001 120.142 8.73001 119.292 8.73001C118.442 8.73001 117.932 7.75001 117.932 6.12001C117.932 4.49001 118.442 3.52001 119.292 3.52001ZM122.286 8.31001V9.50001H122.806L122.276 10.93H122.766L123.476 9.50001V8.31001H122.286ZM126.46 2.60001C124.93 2.60001 124.08 3.86001 124.08 6.12001C124.08 8.38001 124.93 9.65001 126.46 9.65001C127.99 9.65001 128.84 8.38001 128.84 6.12001C128.84 3.86001 127.99 2.60001 126.46 2.60001ZM126.46 3.52001C127.31 3.52001 127.82 4.49001 127.82 6.12001C127.82 7.75001 127.31 8.73001 126.46 8.73001C125.61 8.73001 125.1 7.75001 125.1 6.12001C125.1 4.49001 125.61 3.52001 126.46 3.52001ZM132.224 5.06001C131.714 5.06001 131.214 5.23001 130.914 5.50001H130.894L131.084 3.69001H133.744V2.75001H130.294L129.944 6.45001H130.814C131.044 6.11001 131.494 5.90001 131.974 5.90001C132.764 5.90001 133.264 6.43001 133.264 7.28001C133.264 8.18001 132.764 8.73001 131.934 8.73001C131.244 8.73001 130.774 8.43001 130.424 7.74001L129.594 8.25001C129.994 9.15001 130.824 9.65001 131.934 9.65001C133.394 9.65001 134.284 8.74001 134.284 7.26001C134.284 5.93001 133.474 5.06001 132.224 5.06001Z" fill="white"/>
<path d="M119.282 40.6C117.752 40.6 116.902 41.86 116.902 44.12C116.902 46.38 117.752 47.65 119.282 47.65C120.812 47.65 121.662 46.38 121.662 44.12C121.662 41.86 120.812 40.6 119.282 40.6ZM119.282 41.52C120.132 41.52 120.642 42.49 120.642 44.12C120.642 45.75 120.132 46.73 119.282 46.73C118.432 46.73 117.922 45.75 117.922 44.12C117.922 42.49 118.432 41.52 119.282 41.52ZM122.276 46.31V47.5H122.796L122.266 48.93H122.756L123.466 47.5V46.31H122.276ZM126.45 40.6C124.92 40.6 124.07 41.86 124.07 44.12C124.07 46.38 124.92 47.65 126.45 47.65C127.98 47.65 128.83 46.38 128.83 44.12C128.83 41.86 127.98 40.6 126.45 40.6ZM126.45 41.52C127.3 41.52 127.81 42.49 127.81 44.12C127.81 45.75 127.3 46.73 126.45 46.73C125.6 46.73 125.09 45.75 125.09 44.12C125.09 42.49 125.6 41.52 126.45 41.52ZM131.974 47.65C133.374 47.65 134.344 46.69 134.344 45.31C134.344 43.95 133.474 43.01 132.214 43.01C131.694 43.01 131.284 43.2 130.894 43.62L130.864 43.6L133.344 40.7H132.124L130.944 42.1C129.954 43.25 129.584 44.11 129.584 45.22C129.584 46.69 130.524 47.65 131.974 47.65ZM131.964 46.73C131.124 46.73 130.594 46.18 130.594 45.32C130.594 44.46 131.124 43.9 131.954 43.9C132.794 43.9 133.324 44.45 133.324 45.31C133.324 46.17 132.794 46.73 131.964 46.73Z" fill="white"/>
<path d="M119.031 78.6C117.501 78.6 116.651 79.86 116.651 82.12C116.651 84.38 117.501 85.65 119.031 85.65C120.561 85.65 121.411 84.38 121.411 82.12C121.411 79.86 120.561 78.6 119.031 78.6ZM119.031 79.52C119.881 79.52 120.391 80.49 120.391 82.12C120.391 83.75 119.881 84.73 119.031 84.73C118.181 84.73 117.671 83.75 117.671 82.12C117.671 80.49 118.181 79.52 119.031 79.52ZM122.025 84.31V85.5H122.545L122.015 86.93H122.505L123.215 85.5V84.31H122.025ZM126.26 78.6C124.99 78.6 124.17 79.32 124.13 80.47H125.11C125.13 79.86 125.54 79.52 126.24 79.52C126.93 79.52 127.31 79.87 127.31 80.5C127.31 81.18 126.85 81.53 125.95 81.53H125.63V82.41H125.95C127.07 82.39 127.54 82.73 127.54 83.56C127.54 84.33 127.13 84.73 126.34 84.73C125.58 84.73 125.1 84.35 125.05 83.69H124.07C124.11 84.92 124.95 85.65 126.34 85.65C127.73 85.65 128.57 84.88 128.57 83.62C128.57 82.63 128.05 82.02 127.12 81.91V81.89C127.88 81.71 128.33 81.12 128.33 80.33C128.33 79.29 127.51 78.6 126.26 78.6ZM133.338 85.5V84.56H130.548L132.268 82.65C133.048 81.78 133.348 81.18 133.348 80.48C133.348 79.31 132.578 78.6 131.308 78.6C129.998 78.6 129.168 79.38 129.138 80.63H130.118C130.138 79.94 130.578 79.52 131.268 79.52C131.918 79.52 132.328 79.91 132.328 80.53C132.328 80.99 132.098 81.41 131.448 82.14L129.118 84.78V85.5H133.338Z" fill="white"/>
<path d="M143 13.5L138 10.6132V16.3868L143 13.5ZM111 14H138.5V13H111V14Z" fill="white"/>
<path d="M143 51.5L138 48.6132V54.3868L143 51.5ZM111 52H138.5V51H111V52Z" fill="white"/>
<path d="M143 89.5L138 86.6132V92.3868L143 89.5ZM111 90H138.5V89H111V90Z" fill="white"/>
<path d="M39 14H103" stroke="#2D2D2D"/>
<path d="M39 52H103" stroke="#2D2D2D"/>
<path d="M39.2554 14.0701L103.255 52.0701" stroke="#2D2D2D"/>
<path d="M39.3826 14.1779L103.382 90.1779" stroke="#2D2D2D"/>
<path d="M38.7446 52.0701L102.745 14.0701" stroke="#2D2D2D"/>
<path d="M39.2554 52.0701L103.255 90.0701" stroke="#2D2D2D"/>
<path d="M38.6174 90.1779L102.618 14.1779" stroke="#2D2D2D"/>
<path d="M38.7446 90.0701L102.745 52.0701" stroke="#2D2D2D"/>
<path d="M39 90H103" stroke="#2D2D2D"/>
<path d="M39.5 21.5C43.6421 21.5 47 18.1421 47 14C47 9.85786 43.6421 6.5 39.5 6.5C35.3579 6.5 32 9.85786 32 14C32 18.1421 35.3579 21.5 39.5 21.5Z" fill="#F7CD3A"/>
<path d="M39.5 59.5C43.6421 59.5 47 56.1421 47 52C47 47.8579 43.6421 44.5 39.5 44.5C35.3579 44.5 32 47.8579 32 52C32 56.1421 35.3579 59.5 39.5 59.5Z" fill="#F7CD3A"/>
<path d="M39.5 97.5C43.6421 97.5 47 94.1421 47 90C47 85.8579 43.6421 82.5 39.5 82.5C35.3579 82.5 32 85.8579 32 90C32 94.1421 35.3579 97.5 39.5 97.5Z" fill="#F7CD3A"/>
<path d="M103.5 97.5C107.642 97.5 111 94.1421 111 90C111 85.8579 107.642 82.5 103.5 82.5C99.3579 82.5 96 85.8579 96 90C96 94.1421 99.3579 97.5 103.5 97.5Z" fill="#F7CD3A"/>
<path d="M103.5 59.5C107.642 59.5 111 56.1421 111 52C111 47.8579 107.642 44.5 103.5 44.5C99.3579 44.5 96 47.8579 96 52C96 56.1421 99.3579 59.5 103.5 59.5Z" fill="#F7CD3A"/>
<path d="M103.5 21.5C107.642 21.5 111 18.1421 111 14C111 9.85786 107.642 6.5 103.5 6.5C99.3579 6.5 96 9.85786 96 14C96 18.1421 99.3579 21.5 103.5 21.5Z" fill="#F7CD3A"/>
</g>
<defs>
<clipPath id="clip0_21_92">
<rect width="143" height="97" fill="white" transform="translate(0 0.5)"/>
</clipPath>
</defs>
</svg>
