<svg width="80" height="80" viewBox="0 0 80 80" fill="none" xmlns="http://www.w3.org/2000/svg">
<path d="M59.908 26.6258H56.5798V19.9694C56.5798 10.7835 49.1245 3.32825 39.9387 3.32825C30.7528 3.32825 23.2975 10.7835 23.2975 19.9694V26.6258H19.9693C16.3083 26.6258 13.3129 29.6212 13.3129 33.2823V66.5645C13.3129 70.2255 16.3083 73.2209 19.9693 73.2209H59.908C63.569 73.2209 66.5644 70.2255 66.5644 66.5645V33.2823C66.5644 29.6212 63.569 26.6258 59.908 26.6258ZM29.954 19.9694C29.954 14.4445 34.4138 9.98469 39.9387 9.98469C45.4635 9.98469 49.9233 14.4445 49.9233 19.9694V26.6258H29.954V19.9694ZM59.908 66.5645H19.9693V33.2823H59.908V66.5645ZM39.9387 56.5798C43.5997 56.5798 46.5951 53.5844 46.5951 49.9234C46.5951 46.2623 43.5997 43.2669 39.9387 43.2669C36.2776 43.2669 33.2822 46.2623 33.2822 49.9234C33.2822 53.5844 36.2776 56.5798 39.9387 56.5798Z" fill="#715BF8"/>
</svg>
