<svg width="80" height="81" viewBox="0 0 80 81" fill="none" xmlns="http://www.w3.org/2000/svg">
<path d="M59.9081 27.1258H56.5799V20.4694C56.5799 11.2835 49.1246 3.82825 39.9388 3.82825C30.7529 3.82825 23.2976 11.2835 23.2976 20.4694V27.1258H19.9694C16.3084 27.1258 13.313 30.1212 13.313 33.7823V67.0645C13.313 70.7255 16.3084 73.7209 19.9694 73.7209H59.9081C63.5691 73.7209 66.5645 70.7255 66.5645 67.0645V33.7823C66.5645 30.1212 63.5691 27.1258 59.9081 27.1258ZM29.9541 20.4694C29.9541 14.9445 34.4139 10.4847 39.9388 10.4847C45.4636 10.4847 49.9234 14.9445 49.9234 20.4694V27.1258H29.9541V20.4694ZM59.9081 67.0645H19.9694V33.7823H59.9081V67.0645ZM39.9388 57.0798C43.5998 57.0798 46.5952 54.0844 46.5952 50.4234C46.5952 46.7623 43.5998 43.7669 39.9388 43.7669C36.2777 43.7669 33.2823 46.7623 33.2823 50.4234C33.2823 54.0844 36.2777 57.0798 39.9388 57.0798Z" fill="#F7931A"/>
</svg>
