<svg width="18" height="18" viewBox="0 0 18 18" fill="none" xmlns="http://www.w3.org/2000/svg">
<g clip-path="url(#clip0_29_1977)">
<path d="M16.5 6.93L11.1075 6.465L9 1.5L6.8925 6.4725L1.5 6.93L5.595 10.4775L4.365 15.75L9 12.9525L13.635 15.75L12.4125 10.4775L16.5 6.93ZM9 11.55L6.18 13.2525L6.93 10.0425L4.44 7.8825L7.725 7.5975L9 4.575L10.2825 7.605L13.5675 7.89L11.0775 10.05L11.8275 13.26L9 11.55Z" fill="white"/>
</g>
<path d="M3.75049 7.84178L6.98949 6.81894L9.03517 4.26184L11.0809 6.81894L14.1494 7.84178L11.9332 10.2284L12.2742 13.4674L9.03517 12.2741L5.96664 13.6379V10.2284L3.75049 7.84178Z" fill="white"/>
<defs>
<clipPath id="clip0_29_1977">
<rect width="18" height="18" fill="white"/>
</clipPath>
</defs>
</svg>
