<svg width="1463" height="447" viewBox="0 0 1463 447" fill="none" xmlns="http://www.w3.org/2000/svg">
<g opacity="0.3" filter="url(#filter0_f_15_48)">
<path d="M38.2034 176C44.3026 174.924 50.1739 173.335 56.2731 172.26C62.3724 171.184 68.2436 169.595 74.3429 168.52C76.0477 168.32 76.3121 167.568 76.1206 165.788C74.2152 156.1 72.5376 146.926 70.6321 137.238C70.4406 135.459 70.705 134.707 72.4099 134.507C78.0168 133.67 82.9035 132.556 88.2824 131.205C89.9873 131.005 90.2152 131.519 90.1788 132.785C91.8563 141.959 93.7618 151.646 95.4394 160.82C95.6673 161.334 95.8952 161.848 95.8588 163.114C100.253 162.238 105.14 161.125 109.534 160.249C110.026 160.011 110.063 158.746 110.327 157.994C108.841 150.6 107.583 143.719 106.589 136.087C106.17 133.793 105.751 131.5 105.331 129.206C104.875 128.178 105.14 127.427 106.352 127.465C111.959 126.627 117.338 125.276 123.437 124.2C123.93 123.962 124.157 124.476 124.65 124.238C126.136 131.633 127.394 138.513 128.652 145.394C129.3 148.201 129.947 151.009 130.102 154.054C130.293 155.834 131.014 156.11 132.718 155.91C139.274 155.862 145.829 155.814 152.384 155.767C158.674 156.471 164.929 158.441 170.654 161.914C178.504 167.482 182.643 175.466 184.32 184.64C185.351 191.007 185.661 197.097 183.546 203.112C181.959 207.623 178.932 211.582 175.678 215.027C175.185 215.265 174.921 216.016 173.936 216.492C176.589 217.082 179.014 217.158 181.668 217.748C189.627 219.518 196.072 223.268 201.233 229.511C204.724 234.688 206.967 241.093 207.997 247.459C209.219 255.605 209.493 262.962 207.569 270.756C205.117 280.054 199.82 286.982 192.399 291.816C182.744 298.354 172.442 302.085 161.912 305.301C160.207 305.501 159.45 306.491 159.642 308.271C161.319 317.445 163.225 327.133 164.902 336.307C165.322 338.6 165.549 339.114 162.632 339.276C157.745 340.389 152.138 341.227 147.252 342.34C145.547 342.54 145.319 342.026 145.355 340.76C143.45 331.073 141.544 321.385 140.359 311.973C139.903 310.945 140.168 310.193 138.955 310.155C134.561 311.031 130.167 311.906 125.28 313.02C126.347 318.121 126.921 323.459 127.988 328.56C129.054 333.661 129.629 339 130.695 344.101C130.659 345.367 130.887 345.88 129.182 346.08C123.575 346.918 118.196 348.269 112.817 349.621C111.112 349.82 110.884 349.307 110.921 348.041C109.015 338.353 107.11 328.665 105.925 319.253C105.697 318.739 105.961 317.987 105.505 316.96C92.8145 319.348 80.1238 321.737 66.9407 324.364C67.0137 321.832 66.8222 320.053 66.8951 317.521C66.813 311.945 66.731 306.368 66.3845 301.543C66.193 299.763 66.6853 299.525 68.1623 298.812C72.0643 298.174 76.4587 297.298 80.1328 296.147C84.5271 295.271 86.5693 291.788 85.4661 287.953C80.242 258.651 75.0178 229.35 69.0734 199.772C68.2347 195.185 63.7218 191.75 58.6072 192.349C53.4926 192.949 48.6059 194.062 44.2116 194.938C43.2269 195.414 42.5067 195.138 42.5432 193.872C41.5129 187.505 40.2548 180.625 39.2245 174.258C37.939 176.752 37.939 176.752 38.2034 176ZM119.609 290.798C120.101 290.56 120.822 290.836 120.822 290.836C129.61 289.085 139.119 287.61 147.716 284.079C153.852 281.738 159.268 279.121 163.771 274.449C171.758 266.845 169.998 252.094 160.936 246.489C156.651 243.567 151.573 242.901 146.495 242.235C135.354 241.378 124.103 244.319 113.345 247.022C111.641 247.222 111.869 247.736 112.06 249.515C113.355 255.13 113.929 260.469 115.224 266.084C116.445 274.23 118.159 282.138 119.609 290.798ZM137.715 218.396C138.699 217.92 140.933 216.216 142.674 214.751C151.117 208.175 151.025 194.49 142.228 188.133C137.715 184.697 131.916 183.755 126.574 183.841C118.314 184.088 110.738 185.878 102.441 187.391C100.736 187.591 100.472 188.343 100.663 190.122C102.988 202.104 105.085 213.571 106.918 225.79C106.882 227.056 107.602 227.332 108.814 227.37C111.011 226.932 112.716 226.732 114.913 226.295C122.754 223.754 129.838 222.202 137.715 218.396Z" fill="#F7931A"/>
<path d="M416.057 90.2228C421.709 92.8463 427.444 94.91 433.096 97.5334C438.748 100.157 444.482 102.22 450.134 104.844C451.66 105.661 452.279 105.187 453.062 103.594C456.605 94.4214 460.065 85.8087 463.608 76.6361C464.391 75.0427 465.01 74.5688 466.536 75.386C471.652 77.9237 476.314 79.8157 481.512 81.7935C483.038 82.6108 482.956 83.1706 482.255 84.2042C478.795 92.817 475.252 101.989 471.791 110.602C471.709 111.162 471.627 111.721 470.926 112.755C475.051 114.561 479.713 116.453 483.839 118.26C484.375 118.345 485.076 117.312 485.694 116.838C488.372 109.818 490.967 103.359 494.181 96.4257C495.046 94.2725 495.912 92.1193 496.777 89.9661C496.941 88.8466 497.56 88.3727 498.55 89.1041C503.666 91.6417 508.864 93.6196 514.516 96.243C515.052 96.3289 514.97 96.8886 515.506 96.9745C512.828 103.993 510.233 110.453 507.637 116.913C506.69 119.626 505.743 122.339 504.259 124.966C503.476 126.559 503.93 127.205 505.456 128.022C510.944 131.765 516.432 135.508 521.919 139.251C526.788 143.468 530.957 148.718 533.888 154.917C537.481 164.085 536.701 173.127 533.241 181.74C530.727 187.64 527.76 192.894 522.812 196.686C519.102 199.529 514.483 201.081 509.946 202.074C509.41 201.988 508.791 202.462 507.719 202.29C509.617 204.313 511.598 205.776 513.496 207.799C519.191 213.866 522.576 220.71 523.57 228.89C523.738 235.219 522.215 241.851 519.702 247.75C516.405 255.244 512.738 261.531 507.007 266.916C500.039 273.249 491.956 275.966 483.212 275.712C471.704 275.588 461.143 272.752 450.665 269.356C449.139 268.539 447.984 268.927 447.201 270.521C443.74 279.133 440.197 288.306 436.737 296.919C435.872 299.072 435.789 299.631 433.273 298.083C428.611 296.191 423.495 293.653 418.833 291.761C417.307 290.944 417.389 290.384 418.09 289.35C421.633 280.178 425.175 271.005 429.172 262.478C429.337 261.359 429.955 260.885 428.965 260.154C424.839 258.347 420.714 256.541 416.052 254.649C414.24 259.515 411.891 264.296 410.078 269.162C408.266 274.028 405.917 278.808 404.104 283.674C403.404 284.708 403.321 285.268 401.795 284.451C396.679 281.913 391.481 279.935 386.283 277.957C384.757 277.14 384.839 276.58 385.54 275.547C389.082 266.374 392.625 257.202 396.622 248.675C396.704 248.115 397.323 247.641 397.487 246.521C385.647 241.189 373.807 235.856 361.43 230.437C362.832 228.37 363.615 226.777 365.016 224.709C367.901 220.015 370.786 215.32 373.053 211.1C373.836 209.506 374.372 209.592 375.981 209.85C379.57 211.57 383.695 213.376 387.367 214.537C391.492 216.343 395.039 214.619 396.151 210.787C407.316 183.355 418.481 155.923 429.191 127.846C430.922 123.539 428.981 118.072 424.401 115.621C419.822 113.169 415.16 111.277 411.034 109.471C409.962 109.299 409.508 108.653 410.208 107.62C412.722 101.72 415.317 95.2606 417.83 89.3608C415.439 90.6968 415.439 90.6968 416.057 90.2228ZM423.095 232.86C423.631 232.946 424.085 233.591 424.085 233.591C432.336 237.204 441.041 241.462 450.075 243.481C456.428 245.07 462.327 246.015 468.554 244.72C479.237 242.992 485.582 229.685 480.999 219.784C478.976 214.877 475.097 211.392 471.218 207.906C462.388 200.764 451.456 196.722 441.06 192.767C439.533 191.949 439.451 192.509 438.668 194.102C436.773 199.528 434.424 204.309 432.53 209.735C429.234 217.228 426.474 224.807 423.095 232.86ZM476.527 182.975C477.6 183.147 480.363 183.016 482.59 182.8C493.108 182.191 500.28 170.735 496.315 160.361C494.374 154.894 490.041 150.763 485.544 147.751C478.53 143.191 471.269 140.31 463.554 136.784C462.028 135.966 461.409 136.44 460.626 138.034C456.218 149.359 451.892 160.125 446.948 171.365C446.247 172.399 446.701 173.044 447.692 173.776C449.754 174.679 451.281 175.496 453.344 176.399C461.223 178.806 467.947 181.601 476.527 182.975Z" fill="#F7931A"/>
<path d="M908.203 282.688C913.099 278.742 917.562 274.454 922.458 270.508C927.354 266.562 931.817 262.274 936.713 258.328C938.127 257.314 938.021 256.521 937.049 255.045C930.999 247.434 925.381 240.165 919.33 232.554C918.359 231.079 918.253 230.285 919.667 229.271C924.236 225.777 928.045 222.393 932.181 218.557C933.595 217.543 934.028 217.884 934.566 219.019C940.184 226.288 946.235 233.899 951.853 241.168C952.285 241.509 952.718 241.851 953.257 242.985C956.739 240.053 960.548 236.67 964.03 233.737C964.357 233.286 963.818 232.151 963.712 231.358C959.066 225.565 954.853 220.113 950.534 213.867C949.129 212.05 947.725 210.233 946.32 208.416C945.455 207.733 945.349 206.94 946.436 206.377C951.005 202.883 955.141 199.047 960.037 195.101C960.364 194.649 960.797 194.991 961.124 194.539C965.77 200.332 969.983 205.784 974.196 211.236C976.034 213.395 977.871 215.553 979.381 218.164C980.353 219.64 981.113 219.529 982.527 218.515C988.288 215.252 994.05 211.988 999.812 208.725C1005.68 206.254 1012.09 204.919 1018.7 205.17C1028.14 206.223 1035.39 211.233 1041.01 218.503C1044.79 223.613 1047.81 228.834 1048.66 235.18C1049.29 239.939 1048.41 244.919 1047.09 249.558C1046.76 250.01 1046.87 250.803 1046.22 251.707C1048.82 250.924 1051 249.799 1053.6 249.016C1061.42 246.666 1068.8 246.806 1076.17 249.778C1081.58 252.629 1086.45 257.178 1090.23 262.288C1094.98 268.875 1098.54 275.23 1100.36 283.052C1102.39 292.46 1100.84 301.175 1096.48 309.088C1090.91 319.601 1083.5 327.955 1075.66 335.967C1074.25 336.982 1074.03 338.227 1075 339.703C1080.62 346.972 1086.67 354.582 1092.28 361.852C1093.69 363.669 1094.12 364.01 1091.62 365.587C1087.81 368.971 1083.24 372.465 1079.43 375.849C1078.02 376.863 1077.59 376.522 1077.05 375.387C1071 367.777 1064.95 360.166 1059.66 352.445C1058.79 351.762 1058.69 350.969 1057.6 351.531C1054.12 354.463 1050.63 357.395 1046.83 360.779C1050.07 364.755 1052.98 369.183 1056.22 373.159C1059.47 377.135 1062.38 381.563 1065.62 385.539C1066.16 386.673 1066.59 387.015 1065.18 388.029C1060.61 391.523 1056.47 395.359 1052.34 399.195C1050.92 400.209 1050.49 399.867 1049.95 398.733C1043.9 391.122 1037.85 383.512 1032.56 375.791C1032.13 375.449 1032.02 374.656 1031.16 373.973C1021.04 382.317 1010.92 390.662 1000.47 399.458C999.395 397.189 998.424 395.713 997.346 393.443C994.759 388.564 992.171 383.684 989.689 379.598C988.718 378.122 989.045 377.67 990.026 376.314C993.181 373.834 996.663 370.902 999.385 368.081C1002.87 365.149 1003.1 361.072 1000.39 358.231C982.569 334.947 964.745 311.663 946.16 288.49C943.351 284.856 937.82 284.042 933.578 287.085C929.336 290.127 925.527 293.511 922.045 296.443C921.391 297.347 920.631 297.457 920.093 296.323C916.312 291.212 912.099 285.76 908.318 280.65C908.309 283.481 908.309 283.481 908.203 282.688ZM1031.8 343.962C1032.13 343.51 1032.89 343.399 1032.89 343.399C1039.85 337.535 1047.57 331.561 1053.57 324.221C1057.92 319.14 1061.52 314.17 1063.39 307.834C1067 297.201 1058.8 285.052 1048.27 284.56C1043.18 284.088 1038.4 285.996 1033.62 287.904C1023.4 292.624 1014.8 300.747 1006.53 308.419C1005.11 309.433 1005.55 309.774 1006.52 311.25C1010.19 315.567 1013.11 319.995 1016.78 324.313C1021.54 330.899 1026.61 337.034 1031.8 343.962ZM1015.12 271.187C1015.77 270.284 1016.97 267.683 1017.85 265.534C1022.33 255.584 1016.08 243.555 1005.45 242.27C999.919 241.457 994.378 243.476 989.703 246.177C982.528 250.455 976.651 255.756 970.014 261.168C968.6 262.183 968.706 262.976 969.677 264.452C977.132 273.88 984.155 282.966 991.283 292.846C991.821 293.981 992.581 293.87 993.668 293.308C995.409 291.842 996.823 290.828 998.564 289.362C1004.34 283.267 1009.88 278.417 1015.12 271.187Z" fill="#F7931A"/>
<path d="M1316.98 52.0469C1322.16 55.5719 1327.51 58.5577 1332.7 62.0827C1337.88 65.6076 1343.23 68.5934 1348.41 72.1184C1349.79 73.1778 1350.48 72.8121 1351.49 71.3682C1356.38 62.8974 1361.1 54.9657 1365.99 46.4948C1367.01 45.051 1367.69 44.6853 1369.08 45.7447C1373.74 49.0962 1378.06 51.7352 1382.89 54.5476C1384.27 55.607 1384.11 56.1461 1383.26 57.0508C1378.53 64.9826 1373.64 73.4534 1368.92 81.3852C1368.75 81.9243 1368.59 82.4633 1367.74 83.3681C1371.54 85.8337 1375.85 88.4727 1379.65 90.9383C1380.17 91.1117 1381.02 90.2069 1381.7 89.8413C1385.41 83.3534 1388.95 77.4045 1393.18 71.0901C1394.36 69.1071 1395.54 67.1242 1396.72 65.1413C1397.05 64.0631 1397.74 63.6974 1398.6 64.5834C1403.27 67.9349 1408.1 70.7473 1413.28 74.2722C1413.8 74.4457 1413.63 74.9848 1414.15 75.1582C1410.44 81.6461 1406.9 87.5949 1403.36 93.5437C1402.01 96.0657 1400.66 98.5878 1398.8 100.936C1397.78 102.38 1398.13 103.092 1399.52 104.152C1404.37 108.755 1409.22 113.358 1414.07 117.961C1418.23 122.93 1421.55 128.803 1423.51 135.408C1425.66 145.056 1423.52 153.854 1418.8 161.786C1415.42 167.196 1411.69 171.893 1406.23 174.818C1402.14 177.012 1397.34 177.781 1392.71 178.011C1392.19 177.838 1391.51 178.203 1390.48 177.857C1392.05 180.168 1393.78 181.939 1395.35 184.25C1400.05 191.183 1402.35 198.501 1402.09 206.742C1401.3 213.019 1398.79 219.314 1395.41 224.724C1391.02 231.578 1386.44 237.179 1379.97 241.549C1372.13 246.649 1363.73 247.995 1355.14 246.298C1343.79 244.274 1333.8 239.727 1323.97 234.641C1322.58 233.582 1321.39 233.774 1320.37 235.218C1315.65 243.15 1310.76 251.62 1306.03 259.552C1304.85 261.535 1304.68 262.074 1302.43 260.129C1298.12 257.49 1293.45 254.138 1289.14 251.499C1287.75 250.44 1287.92 249.901 1288.77 248.996C1293.66 240.525 1298.55 232.054 1303.79 224.296C1304.12 223.218 1304.8 222.852 1303.94 221.966C1300.14 219.501 1296.34 217.035 1292.02 214.396C1289.5 218.901 1286.45 223.233 1283.92 227.738C1281.39 232.243 1278.35 236.574 1275.82 241.079C1274.97 241.984 1274.81 242.523 1273.42 241.464C1268.76 238.112 1263.93 235.3 1259.09 232.487C1257.71 231.428 1257.88 230.889 1258.72 229.984C1263.61 221.513 1268.51 213.042 1273.75 205.284C1273.91 204.745 1274.59 204.379 1274.93 203.301C1264.05 196.078 1253.16 188.855 1241.77 181.458C1243.46 179.648 1244.48 178.204 1246.18 176.395C1249.74 172.237 1253.3 168.079 1256.18 164.286C1257.19 162.842 1257.71 163.016 1259.26 163.536C1262.54 165.828 1266.34 168.294 1269.79 170.047C1273.59 172.512 1277.35 171.397 1279.03 167.796C1294.22 142.557 1309.4 117.318 1324.24 91.367C1326.6 87.4011 1325.52 81.6821 1321.37 78.5041C1317.22 75.326 1312.9 72.687 1309.1 70.2214C1308.07 69.8745 1307.72 69.162 1308.57 68.2573C1311.94 62.8475 1315.49 56.8987 1318.86 51.489C1316.3 52.4126 1316.3 52.4126 1316.98 52.0469ZM1302.28 194.047C1302.8 194.22 1303.15 194.933 1303.15 194.933C1310.75 199.864 1318.7 205.507 1327.31 208.995C1333.34 211.615 1339.02 213.523 1345.37 213.274C1356.18 213.334 1364.46 201.244 1361.44 190.711C1360.19 185.532 1356.89 181.449 1353.59 177.366C1345.95 168.853 1335.77 163.055 1326.11 157.43C1324.72 156.371 1324.56 156.91 1323.54 158.354C1320.85 163.398 1317.8 167.729 1315.11 172.773C1310.72 179.627 1306.84 186.654 1302.28 194.047ZM1362.61 153.627C1363.65 153.974 1366.39 154.302 1368.63 154.457C1379.1 155.595 1387.92 145.47 1385.58 134.571C1384.5 128.852 1380.84 124.056 1376.86 120.339C1370.63 114.677 1363.9 110.632 1356.81 105.874C1355.43 104.814 1354.75 105.18 1353.73 106.624C1347.66 117.078 1341.76 126.992 1335.17 137.273C1334.32 138.178 1334.67 138.89 1335.54 139.776C1337.44 141.009 1338.82 142.068 1340.72 143.301C1348.13 146.98 1354.35 150.852 1362.61 153.627Z" fill="#F7931A"/>
<path d="M1153.23 290.558C1156.18 289.748 1159 288.695 1161.95 287.885C1164.9 287.074 1167.72 286.022 1170.67 285.211C1171.5 285.034 1171.59 284.653 1171.42 283.787C1170.08 279.117 1168.86 274.688 1167.52 270.018C1167.35 269.152 1167.44 268.771 1168.27 268.594C1170.99 267.923 1173.34 267.15 1175.93 266.237C1176.76 266.06 1176.89 266.302 1176.93 266.925C1178.14 271.354 1179.49 276.025 1180.7 280.453C1180.84 280.695 1180.97 280.937 1181.01 281.56C1183.13 280.927 1185.48 280.154 1187.6 279.52C1187.83 279.381 1187.8 278.757 1187.9 278.376C1186.85 274.812 1185.94 271.491 1185.13 267.788C1184.83 266.681 1184.52 265.573 1184.22 264.466C1183.95 263.982 1184.05 263.601 1184.65 263.564C1187.36 262.893 1189.95 261.98 1192.9 261.169C1193.13 261.03 1193.27 261.272 1193.5 261.132C1194.54 264.695 1195.45 268.017 1196.36 271.339C1196.8 272.688 1197.24 274.037 1197.44 275.525C1197.61 276.391 1197.98 276.493 1198.81 276.316C1202.02 275.989 1205.24 275.662 1208.46 275.336C1211.58 275.39 1214.74 276.069 1217.7 277.51C1221.79 279.881 1224.16 283.612 1225.37 288.04C1226.15 291.12 1226.56 294.097 1225.78 297.15C1225.19 299.439 1223.87 301.524 1222.42 303.367C1222.19 303.506 1222.09 303.888 1221.63 304.167C1222.95 304.334 1224.15 304.259 1225.48 304.426C1229.46 304.927 1232.79 306.471 1235.59 309.299C1237.52 311.68 1238.9 314.722 1239.67 317.802C1240.62 321.747 1241.06 325.348 1240.45 329.265C1239.64 333.946 1237.33 337.594 1233.89 340.312C1229.43 343.971 1224.53 346.28 1219.49 348.347C1218.66 348.524 1218.33 349.046 1218.5 349.911C1219.72 354.34 1221.06 359.01 1222.28 363.439C1222.58 364.546 1222.71 364.788 1221.29 365.002C1218.93 365.776 1216.22 366.446 1213.86 367.219C1213.03 367.397 1212.9 367.155 1212.86 366.531C1211.52 361.861 1210.17 357.19 1209.19 352.622C1208.92 352.138 1209.02 351.756 1208.42 351.794C1206.3 352.427 1204.18 353.061 1201.82 353.834C1202.57 356.29 1203.07 358.886 1203.81 361.342C1204.56 363.798 1205.06 366.394 1205.8 368.851C1205.84 369.474 1205.97 369.716 1205.15 369.893C1202.43 370.564 1199.84 371.477 1197.26 372.389C1196.43 372.566 1196.29 372.324 1196.26 371.701C1194.91 367.03 1193.56 362.36 1192.58 357.791C1192.45 357.55 1192.55 357.168 1192.28 356.684C1186.15 358.445 1180.01 360.206 1173.65 362.106C1173.58 360.859 1173.41 359.994 1173.34 358.747C1173.06 356.011 1172.78 353.276 1172.41 350.922C1172.24 350.057 1172.47 349.917 1173.16 349.498C1175.05 349.004 1177.18 348.371 1178.93 347.635C1181.05 347.002 1181.91 345.196 1181.2 343.363C1177.39 329.212 1173.58 315.06 1169.41 300.807C1168.8 298.592 1166.44 297.114 1163.95 297.645C1161.46 298.176 1159.11 298.949 1156.99 299.583C1156.52 299.862 1156.16 299.76 1156.12 299.136C1155.35 296.057 1154.44 292.735 1153.66 289.655C1153.13 290.94 1153.13 290.94 1153.23 290.558ZM1198.1 343.181C1198.33 343.041 1198.69 343.144 1198.69 343.144C1202.94 341.877 1207.54 340.712 1211.62 338.58C1214.53 337.146 1217.08 335.61 1219.09 333.106C1222.69 329.001 1221.2 321.837 1216.51 319.503C1214.28 318.266 1211.76 318.174 1209.24 318.082C1203.73 318.177 1198.33 320.142 1193.16 321.967C1192.33 322.145 1192.46 322.386 1192.63 323.252C1193.51 325.95 1194.02 328.546 1194.89 331.244C1195.84 335.189 1197.02 338.994 1198.1 343.181ZM1203.91 306.778C1204.38 306.499 1205.4 305.559 1206.2 304.758C1210.06 301.137 1209.44 294.42 1204.85 291.704C1202.48 290.225 1199.59 290.031 1196.97 290.32C1192.93 290.824 1189.28 292.054 1185.27 293.181C1184.44 293.358 1184.34 293.739 1184.51 294.605C1186.16 300.382 1187.68 305.918 1189.1 311.836C1189.14 312.459 1189.5 312.561 1190.1 312.524C1191.16 312.207 1191.99 312.03 1193.05 311.714C1196.79 310.103 1200.21 309.013 1203.91 306.778Z" fill="#F7931A"/>
<path d="M626.232 122.5C629.183 121.689 631.999 120.637 634.95 119.826C637.9 119.016 640.716 117.963 643.667 117.153C644.496 116.976 644.594 116.594 644.424 115.729C643.077 111.058 641.863 106.63 640.515 101.959C640.346 101.094 640.444 100.712 641.273 100.535C643.991 99.8643 646.344 99.0916 648.929 98.1788C649.758 98.0018 649.892 98.2436 649.928 98.8671C651.141 103.295 652.489 107.966 653.703 112.395C653.836 112.637 653.97 112.879 654.006 113.502C656.127 112.869 658.48 112.095 660.602 111.462C660.833 111.322 660.798 110.699 660.896 110.317C659.851 106.754 658.941 103.432 658.129 99.7293C657.825 98.6225 657.522 97.5153 657.219 96.4081C656.951 95.9244 657.049 95.5428 657.646 95.5054C660.365 94.8345 662.95 93.9218 665.9 93.1113C666.132 92.9716 666.265 93.2135 666.497 93.0739C667.541 96.6373 668.451 99.9593 669.362 103.28C669.799 104.629 670.236 105.978 670.442 107.467C670.611 108.332 670.977 108.434 671.806 108.257C675.024 107.931 678.242 107.604 681.459 107.277C684.579 107.332 687.735 108.01 690.695 109.451C694.787 111.823 697.16 115.553 698.373 119.982C699.15 123.062 699.561 126.039 698.777 129.091C698.19 131.38 696.871 133.465 695.419 135.308C695.187 135.448 695.089 135.829 694.625 136.109C695.954 136.276 697.148 136.201 698.476 136.368C702.461 136.869 705.787 138.412 708.586 141.24C710.522 143.622 711.895 146.664 712.672 149.743C713.618 153.688 714.065 157.289 713.451 161.207C712.641 165.887 710.333 169.536 706.893 172.254C702.429 175.912 697.527 178.222 692.491 180.289C691.662 180.466 691.332 180.987 691.502 181.852C692.715 186.281 694.063 190.952 695.277 195.38C695.58 196.488 695.714 196.73 694.288 196.944C691.934 197.717 689.216 198.388 686.863 199.161C686.034 199.338 685.9 199.096 685.864 198.473C684.517 193.802 683.169 189.132 682.187 184.563C681.92 184.079 682.018 183.698 681.42 183.735C679.299 184.369 677.178 185.002 674.825 185.775C675.565 188.232 676.074 190.827 676.815 193.284C677.555 195.74 678.064 198.336 678.805 200.792C678.841 201.416 678.975 201.657 678.146 201.834C675.427 202.505 672.842 203.418 670.257 204.331C669.428 204.508 669.295 204.266 669.259 203.643C667.911 198.972 666.564 194.301 665.582 189.733C665.448 189.491 665.546 189.11 665.279 188.626C659.146 190.387 653.014 192.147 646.65 194.048C646.578 192.801 646.408 191.935 646.337 190.689C646.06 187.953 645.782 185.217 645.407 182.863C645.238 181.998 645.469 181.859 646.165 181.44C648.054 180.946 650.176 180.312 651.931 179.577C654.053 178.943 654.908 177.138 654.203 175.305C650.393 161.154 646.582 147.002 642.406 132.748C641.799 130.534 639.436 129.055 636.949 129.587C634.462 130.118 632.109 130.891 629.988 131.524C629.525 131.804 629.159 131.701 629.123 131.078C628.347 127.998 627.436 124.677 626.66 121.597C626.134 122.881 626.134 122.881 626.232 122.5ZM671.095 175.123C671.327 174.983 671.693 175.085 671.693 175.085C675.935 173.818 680.543 172.654 684.617 170.521C687.531 169.087 690.08 167.551 692.094 165.048C695.694 160.943 694.203 153.779 689.513 151.445C687.285 150.208 684.762 150.116 682.239 150.024C676.73 150.118 671.329 152.084 666.159 153.909C665.33 154.086 665.464 154.328 665.634 155.193C666.508 157.891 667.017 160.487 667.891 163.185C668.838 167.13 670.015 170.936 671.095 175.123ZM676.914 138.72C677.377 138.441 678.402 137.5 679.195 136.7C683.063 133.079 682.437 126.361 677.845 123.646C675.483 122.167 672.594 121.973 669.974 122.262C665.927 122.766 662.281 123.995 658.27 125.122C657.441 125.299 657.344 125.681 657.513 126.546C659.164 132.324 660.681 137.86 662.1 143.777C662.136 144.401 662.502 144.503 663.099 144.466C664.16 144.149 664.989 143.972 666.049 143.655C669.793 142.044 673.206 140.954 676.914 138.72Z" fill="#F7931A"/>
<path d="M271.86 126.928C274.007 129.19 276.289 131.21 278.436 133.472C280.584 135.733 282.865 137.753 285.013 140.015C285.574 140.676 285.94 140.574 286.573 139.988C289.774 136.434 292.842 133.123 296.043 129.569C296.676 128.983 297.041 128.881 297.603 129.542C299.519 131.664 301.337 133.405 303.386 135.285C303.948 135.946 303.814 136.188 303.315 136.532C300.247 139.843 297.046 143.397 293.978 146.708C293.845 146.95 293.711 147.192 293.212 147.536C294.798 149.137 296.616 150.878 298.202 152.479C298.434 152.618 298.933 152.274 299.298 152.172C301.733 149.447 304.033 146.963 306.7 144.377C307.466 143.549 308.233 142.721 309 141.893C309.268 141.41 309.633 141.307 309.963 141.829C311.879 143.951 313.928 145.831 316.076 148.093C316.308 148.233 316.174 148.474 316.406 148.614C313.971 151.34 311.671 153.823 309.37 156.307C308.469 157.377 307.569 158.446 306.436 159.376C305.803 159.962 305.901 160.344 306.463 161.005C308.343 163.75 310.223 166.496 312.103 169.242C313.617 172.089 314.633 175.281 314.917 178.678C314.995 183.563 313.087 187.572 310.019 190.884C307.852 193.126 305.588 194.986 302.664 195.804C300.47 196.417 298.082 196.268 295.826 195.876C295.595 195.736 295.229 195.839 294.766 195.559C295.291 196.844 295.951 197.886 296.476 199.17C298.053 203.023 298.435 206.801 297.489 210.746C296.481 213.686 294.643 216.449 292.477 218.69C289.677 221.518 286.913 223.723 283.356 225.126C279.067 226.735 274.887 226.473 270.912 224.722C265.644 222.515 261.277 219.238 257.044 215.72C256.483 215.059 255.885 215.021 255.252 215.607C252.185 218.919 248.984 222.472 245.916 225.784C245.149 226.612 245.016 226.854 244.124 225.672C242.307 223.931 240.391 221.809 238.573 220.068C238.011 219.407 238.145 219.165 238.644 218.821C241.846 215.268 245.047 211.715 248.346 208.543C248.614 208.059 248.979 207.957 248.65 207.435C247.063 205.835 245.477 204.234 243.659 202.493C241.992 204.391 240.092 206.149 238.425 208.046C236.757 209.944 234.858 211.702 233.191 213.599C232.691 213.944 232.558 214.185 231.996 213.525C230.08 211.402 228.031 209.522 225.981 207.642C225.42 206.981 225.553 206.739 226.053 206.395C229.254 202.842 232.455 199.288 235.754 196.116C235.888 195.875 236.254 195.772 236.521 195.289C231.994 190.625 227.467 185.962 222.709 181.159C223.707 180.471 224.34 179.885 225.339 179.197C227.47 177.578 229.601 175.96 231.366 174.444C231.999 173.858 232.231 173.998 232.926 174.416C234.281 175.878 235.867 177.479 237.355 178.698C238.942 180.299 240.867 180.17 242.035 178.616C251.871 168.095 261.706 157.575 271.444 146.673C272.977 145.017 273.023 142.142 271.339 140.159C269.655 138.177 267.837 136.436 266.25 134.835C265.787 134.556 265.689 134.174 266.188 133.83C268.355 131.589 270.656 129.105 272.823 126.863C271.494 127.03 271.494 127.03 271.86 126.928ZM250.633 193.795C250.864 193.935 250.962 194.316 250.962 194.316C254.135 197.518 257.405 201.102 261.211 203.718C263.858 205.635 266.406 207.172 269.491 207.74C274.696 208.942 279.894 204.012 279.486 198.606C279.398 195.973 278.213 193.646 277.028 191.32C274.195 186.387 269.864 182.487 265.764 178.726C265.203 178.065 265.069 178.307 264.436 178.893C262.635 181.033 260.736 182.791 258.934 184.93C256.134 187.758 253.566 190.726 250.633 193.795ZM283.744 180.854C284.207 181.133 285.499 181.59 286.56 181.906C291.498 183.592 296.758 179.667 296.716 174.159C296.761 171.283 295.478 168.575 293.928 166.351C291.486 162.945 288.644 160.264 285.703 157.201C285.142 156.541 284.776 156.643 284.143 157.229C280.175 161.61 276.341 165.75 272.141 169.991C271.641 170.335 271.739 170.717 272.069 171.238C272.862 172.038 273.424 172.699 274.217 173.5C277.425 176.078 280.036 178.619 283.744 180.854Z" fill="#F7931A"/>
<path d="M342.806 304.836C345.441 306.441 348.145 307.776 350.781 309.38C353.416 310.985 356.12 312.319 358.756 313.924C359.462 314.411 359.789 314.213 360.256 313.476C362.467 309.179 364.609 305.151 366.82 300.854C367.286 300.117 367.614 299.92 368.32 300.406C370.696 301.939 372.884 303.129 375.33 304.391C376.036 304.878 375.967 305.148 375.57 305.615C373.428 309.642 371.217 313.939 369.075 317.967C369.006 318.237 368.937 318.506 368.54 318.974C370.469 320.092 372.656 321.282 374.586 322.4C374.844 322.472 375.241 322.005 375.569 321.807C377.244 318.517 378.851 315.496 380.785 312.278C381.32 311.271 381.856 310.265 382.391 309.258C382.53 308.718 382.857 308.521 383.305 308.935C385.682 310.467 388.128 311.73 390.763 313.334C391.022 313.406 390.952 313.676 391.211 313.749C389.535 317.039 387.929 320.059 386.322 323.08C385.718 324.357 385.113 325.633 384.25 326.838C383.784 327.575 383.973 327.917 384.679 328.403C387.176 330.548 389.672 332.692 392.169 334.836C394.338 337.177 396.11 339.986 397.227 343.19C398.514 347.887 397.664 352.276 395.523 356.304C393.985 359.054 392.259 361.463 389.637 363.043C387.671 364.228 385.327 364.729 383.051 364.96C382.793 364.888 382.465 365.085 381.948 364.941C382.774 366.039 383.67 366.868 384.496 367.966C386.974 371.262 388.28 374.808 388.344 378.874C388.099 381.986 387.01 385.151 385.472 387.902C383.469 391.39 381.346 394.266 378.258 396.583C374.515 399.295 370.411 400.171 366.138 399.554C360.502 398.846 355.472 396.86 350.511 394.605C349.804 394.118 349.218 394.244 348.752 394.981C346.61 399.008 344.399 403.305 342.257 407.333C341.722 408.34 341.653 408.609 340.499 407.708C338.311 406.518 335.934 404.986 333.747 403.796C333.041 403.309 333.11 403.039 333.507 402.572C335.718 398.275 337.929 393.978 340.329 390.023C340.468 389.483 340.796 389.285 340.348 388.871C338.419 387.753 336.49 386.635 334.302 385.445C333.162 387.729 331.763 389.94 330.623 392.223C329.483 394.507 328.084 396.718 326.944 399.002C326.547 399.469 326.478 399.739 325.772 399.252C323.395 397.72 320.949 396.457 318.503 395.195C317.797 394.708 317.866 394.438 318.263 393.971C320.474 389.674 322.685 385.377 325.086 381.422C325.155 381.152 325.483 380.954 325.621 380.415C320.092 377.133 314.563 373.852 308.776 370.498C309.57 369.564 310.036 368.827 310.83 367.892C312.487 365.753 314.144 363.614 315.474 361.673C315.94 360.936 316.198 361.008 316.974 361.225C318.644 362.271 320.573 363.389 322.313 364.164C324.242 365.282 326.07 364.637 326.813 362.821C333.705 350.001 340.597 337.182 347.299 324.021C348.37 322.007 347.701 319.218 345.583 317.758C343.465 316.298 341.277 315.107 339.348 313.99C338.831 313.845 338.642 313.503 339.039 313.036C340.576 310.285 342.182 307.264 343.72 304.514C342.478 305.034 342.478 305.034 342.806 304.836ZM338.881 375.16C339.14 375.232 339.329 375.574 339.329 375.574C343.187 377.81 347.235 380.388 351.559 381.886C354.591 383.024 357.434 383.819 360.554 383.535C365.881 383.29 369.68 377.123 367.945 372.012C367.206 369.492 365.485 367.565 363.764 365.637C359.804 361.638 354.653 359.041 349.761 356.516C349.055 356.03 348.986 356.299 348.52 357.037C347.31 359.59 345.912 361.801 344.702 364.354C342.699 367.842 340.954 371.402 338.881 375.16ZM367.655 353.714C368.172 353.859 369.534 353.95 370.637 353.97C375.824 354.264 379.933 349.052 378.525 343.742C377.856 340.953 375.946 338.684 373.897 336.954C370.694 334.323 367.283 332.502 363.683 330.338C362.977 329.852 362.65 330.049 362.183 330.786C359.437 336.09 356.76 341.124 353.755 346.356C353.358 346.823 353.547 347.166 353.994 347.58C354.959 348.139 355.665 348.625 356.63 349.184C360.368 350.808 363.52 352.557 367.655 353.714Z" fill="#F7931A"/>
<path d="M1004.08 79.8033C1007.12 80.0751 1010.11 80.0721 1013.15 80.3439C1016.19 80.6156 1019.19 80.6127 1022.23 80.8844C1023.06 81.0085 1023.28 80.6835 1023.4 79.8091C1023.63 74.9374 1023.91 70.3406 1024.15 65.4689C1024.27 64.5945 1024.48 64.2695 1025.32 64.3936C1028.1 64.7156 1030.56 64.8131 1033.29 64.8603C1034.13 64.9844 1034.18 65.2591 1034.01 65.8589C1033.73 70.4557 1033.49 75.3274 1033.21 79.9242C1033.26 80.199 1033.31 80.4737 1033.14 81.0735C1035.34 81.2212 1037.81 81.3186 1040.01 81.4663C1040.27 81.4161 1040.44 80.8164 1040.65 80.4914C1040.82 76.769 1041.03 73.3213 1041.46 69.5487C1041.53 68.3995 1041.6 67.2503 1041.67 66.1011C1041.57 65.5516 1041.79 65.2266 1042.36 65.4009C1045.14 65.7229 1047.87 65.7701 1050.91 66.0419C1051.17 65.9917 1051.22 66.2664 1051.48 66.2162C1051.32 69.9386 1051.1 73.3863 1050.89 76.8339C1050.87 78.2579 1050.85 79.6819 1050.56 81.1561C1050.44 82.0305 1050.75 82.2551 1051.59 82.3791C1054.73 83.2004 1057.86 84.0217 1061 84.843C1063.92 85.9892 1066.67 87.7352 1069 90.1311C1072.09 93.8003 1073.12 98.1461 1072.84 102.743C1072.58 105.916 1072.01 108.864 1070.29 111.464C1068.99 113.414 1067.08 114.914 1065.12 116.14C1064.86 116.191 1064.64 116.516 1064.12 116.616C1065.31 117.239 1066.46 117.588 1067.66 118.211C1071.25 120.081 1073.89 122.702 1075.61 126.347C1076.67 129.269 1076.98 132.616 1076.72 135.789C1076.34 139.837 1075.6 143.385 1073.76 146.859C1071.49 150.983 1068.15 153.61 1064.03 154.963C1058.65 156.842 1053.29 157.297 1047.88 157.477C1047.04 157.353 1046.56 157.728 1046.44 158.603C1046.16 163.199 1045.93 168.071 1045.64 172.668C1045.57 173.817 1045.62 174.092 1044.21 173.793C1041.74 173.696 1038.97 173.374 1036.5 173.277C1035.66 173.152 1035.62 172.878 1035.78 172.278C1036.02 167.406 1036.25 162.535 1036.8 157.888C1036.7 157.338 1036.92 157.013 1036.34 156.839C1034.14 156.691 1031.94 156.543 1029.47 156.446C1029.38 159.019 1029.02 161.643 1028.93 164.216C1028.84 166.789 1028.48 169.412 1028.39 171.986C1028.22 172.585 1028.27 172.86 1027.43 172.736C1024.65 172.414 1021.93 172.367 1019.2 172.319C1018.36 172.195 1018.31 171.921 1018.48 171.321C1018.71 166.449 1018.95 161.578 1019.49 156.931C1019.45 156.656 1019.66 156.331 1019.57 155.781C1013.22 155.288 1006.88 154.795 1000.28 154.352C1000.61 153.152 1000.73 152.278 1001.06 151.078C1001.68 148.405 1002.3 145.731 1002.71 143.382C1002.82 142.508 1003.09 142.458 1003.88 142.307C1005.82 142.505 1008.02 142.653 1009.91 142.576C1012.11 142.723 1013.5 141.323 1013.42 139.35C1014.39 124.685 1015.36 110.019 1016.02 95.1301C1016.16 92.8316 1014.41 90.61 1011.9 90.2378C1009.38 89.8656 1006.92 89.7681 1004.72 89.6204C1004.19 89.7208 1003.88 89.4963 1004.04 88.8966C1004.3 85.7237 1004.52 82.276 1004.78 79.1031C1003.87 80.1283 1003.87 80.1283 1004.08 79.8033ZM1029.39 145.104C1029.65 145.054 1029.97 145.279 1029.97 145.279C1034.37 145.574 1039.09 146.094 1043.61 145.515C1046.81 145.187 1049.71 144.635 1052.41 142.983C1057.12 140.38 1058.03 133.11 1054.36 129.266C1052.66 127.32 1050.32 126.348 1047.97 125.376C1042.75 123.532 1037.03 123.488 1031.57 123.393C1030.74 123.269 1030.78 123.544 1030.67 124.419C1030.62 127.266 1030.26 129.89 1030.22 132.738C1029.84 136.785 1029.72 140.782 1029.39 145.104ZM1046.59 112.861C1047.12 112.761 1048.39 112.235 1049.39 111.759C1054.2 109.706 1055.77 103.159 1052.32 98.9911C1050.58 96.7695 1047.92 95.573 1045.36 94.9261C1041.38 93.9807 1037.55 93.8596 1033.41 93.514C1032.58 93.3899 1032.36 93.7149 1032.24 94.5893C1031.94 100.61 1031.58 106.356 1031.01 112.427C1030.85 113.027 1031.16 113.251 1031.73 113.426C1032.83 113.499 1033.67 113.624 1034.77 113.697C1038.82 113.494 1042.38 113.665 1046.59 112.861Z" fill="#F7931A"/>
<path d="M834.71 8.75523C839.191 11.4839 843.791 13.7538 848.272 16.4825C852.754 19.2112 857.353 21.4811 861.835 24.2098C863.035 25.0374 863.593 24.7016 864.386 23.4481C868.146 16.1402 871.788 9.29111 875.549 1.98321C876.341 0.729739 876.899 0.393871 878.1 1.22148C882.142 3.82724 885.862 5.85127 890.022 7.99823C891.222 8.82584 891.105 9.28464 890.43 10.0793C886.787 16.9284 883.027 24.2363 879.384 31.0854C879.267 31.5442 879.149 32.003 878.474 32.7977C881.754 34.6987 885.475 36.7228 888.755 38.6239C889.195 38.7468 889.87 37.9521 890.427 37.6163C893.277 32.0206 896.009 26.8838 899.298 21.4111C900.209 19.6989 901.119 17.9866 902.03 16.2743C902.265 15.3567 902.823 15.0209 903.584 15.7255C907.626 18.3313 911.786 20.4783 916.267 23.2069C916.707 23.3299 916.589 23.7887 917.029 23.9116C914.179 29.5072 911.447 34.6441 908.715 39.7809C907.687 41.952 906.658 44.123 905.191 46.1712C904.398 47.4246 904.719 48.0064 905.92 48.834C910.166 52.4803 914.412 56.1266 918.658 59.7729C922.347 63.7551 925.361 68.5319 927.26 73.9805C929.449 81.9689 928.004 89.4327 924.361 96.2818C921.747 100.96 918.811 105.056 914.353 107.743C911.009 109.758 907.022 110.61 903.152 111.003C902.713 110.88 902.155 111.216 901.276 110.97C902.681 112.838 904.204 114.247 905.609 116.115C909.823 121.72 912.044 127.75 912.153 134.665C911.737 139.958 909.884 145.34 907.27 150.018C903.863 155.95 900.252 160.841 895.001 164.781C888.635 169.393 881.657 170.884 874.389 169.835C864.805 168.629 856.25 165.253 847.813 161.418C846.612 160.59 845.615 160.803 844.822 162.057C841.18 168.906 837.42 176.214 833.777 183.063C832.867 184.775 832.749 185.234 830.787 183.701C827.066 181.677 823.024 179.072 819.304 177.048C818.103 176.22 818.221 175.761 818.896 174.967C822.656 167.659 826.417 160.351 830.499 153.625C830.734 152.707 831.292 152.371 830.53 151.667C827.25 149.765 823.969 147.864 820.249 145.84C818.31 149.724 815.931 153.484 813.992 157.367C812.053 161.251 809.674 165.011 807.735 168.895C807.06 169.689 806.943 170.148 805.742 169.32C801.7 166.715 797.54 164.568 793.38 162.421C792.179 161.593 792.297 161.134 792.972 160.34C796.732 153.032 800.493 145.724 804.575 138.998C804.693 138.539 805.25 138.203 805.485 137.285C796.083 131.705 786.68 126.125 776.838 120.421C778.188 118.832 778.981 117.579 780.331 115.989C783.149 112.352 785.967 108.714 788.228 105.413C789.021 104.159 789.46 104.282 790.779 104.651C793.62 106.429 796.901 108.33 799.86 109.65C803.141 111.551 806.249 110.453 807.513 107.364C819.233 85.564 830.953 63.7633 842.352 41.3808C844.173 37.9562 843.036 33.2123 839.433 30.7295C835.831 28.2467 832.11 26.2227 828.83 24.3216C827.951 24.0757 827.629 23.494 828.304 22.6993C830.918 18.0213 833.65 12.8844 836.264 8.20643C834.153 9.0911 834.153 9.09109 834.71 8.75523ZM828.036 128.349C828.476 128.472 828.797 129.053 828.797 129.053C835.359 132.856 842.242 137.24 849.596 139.788C854.753 141.722 859.588 143.075 864.894 142.592C873.952 142.175 880.412 131.688 877.462 122.995C876.206 118.71 873.279 115.432 870.351 112.155C863.617 105.354 854.858 100.937 846.539 96.6435C845.338 95.8159 845.22 96.2747 844.427 97.5282C842.371 101.87 839.992 105.63 837.935 109.973C834.528 115.904 831.561 121.958 828.036 128.349ZM876.97 91.8779C877.849 92.1237 880.164 92.2796 882.04 92.3125C890.862 92.8131 897.849 83.9488 895.455 74.9198C894.318 70.1759 891.069 66.3167 887.584 63.3751C882.137 58.9012 876.337 55.8037 870.215 52.1244C869.014 51.2968 868.457 51.6327 867.664 52.8861C862.993 61.9063 858.44 70.4677 853.33 79.3649C852.655 80.1596 852.976 80.7413 853.738 81.446C855.378 82.3965 856.579 83.2241 858.219 84.1747C864.577 86.9363 869.937 89.9109 876.97 91.8779Z" fill="#F7931A"/>
<path d="M156.555 -24.9533C161.567 -24.93 166.464 -25.3499 171.475 -25.3266C176.487 -25.3033 181.384 -25.7232 186.395 -25.6999C187.783 -25.6129 188.094 -26.1748 188.177 -27.6231C187.941 -35.6317 187.819 -43.1972 187.583 -51.2058C187.667 -52.654 187.978 -53.2159 189.365 -53.129C193.952 -52.987 198 -53.1694 202.473 -53.4705C203.86 -53.3836 203.974 -52.9404 203.777 -51.9353C203.899 -44.3699 204.135 -36.3612 204.257 -28.7957C204.37 -28.3526 204.484 -27.9094 204.287 -26.9044C207.911 -26.968 211.959 -27.1504 215.583 -27.214C216.008 -27.3327 216.205 -28.3378 216.516 -28.8997C216.31 -35.017 216.219 -40.6911 216.438 -46.9271C216.408 -48.8185 216.377 -50.7098 216.347 -52.6012C216.119 -53.4875 216.43 -54.0494 217.393 -53.8438C221.98 -53.7017 226.453 -54.0028 231.464 -53.9796C231.889 -54.0983 232.002 -53.6551 232.427 -53.7739C232.632 -47.6566 232.723 -41.9825 232.815 -36.3084C232.959 -33.9739 233.103 -31.6393 232.823 -29.1861C232.74 -27.7378 233.278 -27.4134 234.665 -27.3265C239.904 -26.4169 245.143 -25.5073 250.382 -24.5977C255.31 -23.1262 260.041 -20.6496 264.15 -17.0493C269.677 -11.4706 271.922 -4.49882 272.044 3.06667C272.022 8.29762 271.461 13.2042 268.975 17.6994C267.11 21.0708 264.169 23.7934 261.114 26.0728C260.689 26.1915 260.378 26.7534 259.529 26.9909C261.569 27.8454 263.494 28.2567 265.534 29.1112C271.652 31.6747 276.3 35.5995 279.59 41.3287C281.691 45.966 282.631 51.4026 282.609 56.6336C282.504 63.3127 281.746 69.2243 279.176 75.1677C275.985 82.235 270.838 86.9995 264.273 89.7857C255.698 93.6088 246.98 95.0973 238.148 96.1427C236.76 96.0558 236.025 96.7364 235.942 98.1847C236.064 105.75 236.299 113.758 236.421 121.324C236.452 123.215 236.566 123.659 234.215 123.366C230.167 123.548 225.58 123.406 221.532 123.589C220.144 123.502 220.031 123.059 220.228 122.053C219.992 114.045 219.756 106.036 220.059 98.3523C219.832 97.4659 220.142 96.9041 219.179 96.6984C215.556 96.762 211.932 96.8257 207.883 97.008C208.058 101.234 207.808 105.578 207.983 109.804C208.158 114.03 207.908 118.375 208.083 122.601C207.886 123.606 207.999 124.049 206.612 123.962C202.025 123.82 197.552 124.121 193.079 124.422C191.692 124.335 191.578 123.892 191.775 122.887C191.539 114.878 191.304 106.87 191.606 99.1858C191.493 98.7426 191.803 98.1807 191.576 97.2944C181.129 97.3665 170.682 97.4387 159.81 97.6296C160.204 95.6195 160.288 94.1713 160.682 92.1612C161.356 87.6978 162.03 83.2344 162.394 79.3329C162.477 77.8847 162.902 77.766 164.175 77.4097C167.375 77.4648 170.999 77.4012 174.084 77.0131C177.708 76.9495 179.8 74.4644 179.428 71.2436C179.146 47.0989 178.863 22.9542 178.043 -1.51485C177.982 -5.29759 174.835 -8.69229 170.673 -8.95306C166.511 -9.21384 162.462 -9.03147 158.839 -8.96783C157.989 -8.73035 157.451 -9.05476 157.648 -10.0598C157.671 -15.2908 157.579 -20.9649 157.601 -26.1958C156.245 -24.3914 156.245 -24.3914 156.555 -24.9533ZM206.305 78.4505C206.729 78.3318 207.268 78.6562 207.268 78.6562C214.515 78.5289 222.301 78.7261 229.632 77.1506C234.841 76.1688 239.511 74.8627 243.726 71.7839C251.11 66.8688 251.662 54.8399 245.172 49.0556C242.139 46.104 238.174 44.8382 234.209 43.5724C225.429 41.2782 216.059 41.9992 207.113 42.6014C205.726 42.5145 205.839 42.9577 205.756 44.4059C206.045 49.0749 205.795 53.4196 206.083 58.0886C205.978 64.7678 206.297 71.3282 206.305 78.4505ZM230.363 23.2741C231.213 23.0366 233.222 21.9997 234.806 21.0816C242.417 17.0528 244.16 6.11595 237.981 -0.230289C234.834 -3.62498 230.331 -5.21523 226.055 -5.91917C219.429 -6.9157 213.144 -6.58277 206.321 -6.57424C204.933 -6.66116 204.622 -6.09927 204.539 -4.65105C204.805 5.24896 204.958 14.7058 204.799 24.7246C204.602 25.7296 205.141 26.0541 206.103 26.2597C207.915 26.2279 209.303 26.3148 211.115 26.283C217.71 25.3882 223.571 25.174 230.363 23.2741Z" fill="#F7931A"/>
<path d="M1118.83 25.0143C1123.84 25.0376 1128.73 24.6178 1133.75 24.6411C1138.76 24.6644 1143.65 24.2445 1148.67 24.2678C1150.05 24.3547 1150.36 23.7928 1150.45 22.3446C1150.21 14.336 1150.09 6.77047 1149.85 -1.23817C1149.94 -2.68639 1150.25 -3.24829 1151.64 -3.16136C1156.22 -3.01933 1160.27 -3.20171 1164.74 -3.50283C1166.13 -3.4159 1166.24 -2.97274 1166.05 -1.96769C1166.17 5.5978 1166.4 13.6064 1166.53 21.1719C1166.64 21.6151 1166.75 22.0582 1166.56 23.0633C1170.18 22.9997 1174.23 22.8173 1177.85 22.7536C1178.28 22.6349 1178.48 21.6299 1178.79 21.0679C1178.58 14.9507 1178.49 9.27656 1178.71 3.04055C1178.68 1.14918 1178.65 -0.742195 1178.62 -2.63357C1178.39 -3.51988 1178.7 -4.08178 1179.66 -3.87611C1184.25 -3.73407 1188.72 -4.0352 1193.73 -4.0119C1194.16 -4.13065 1194.27 -3.68749 1194.7 -3.80623C1194.9 2.31104 1194.99 7.98515 1195.09 13.6593C1195.23 15.9938 1195.37 18.3283 1195.09 20.7816C1195.01 22.2298 1195.55 22.5542 1196.94 22.6411C1202.17 23.5508 1207.41 24.4604 1212.65 25.37C1217.58 26.8415 1222.31 29.318 1226.42 32.9184C1231.95 38.4971 1234.19 45.4688 1234.31 53.0343C1234.29 58.2653 1233.73 63.1718 1231.24 67.667C1229.38 71.0384 1226.44 73.761 1223.38 76.0404C1222.96 76.1592 1222.65 76.7211 1221.8 76.9586C1223.84 77.8131 1225.76 78.2244 1227.8 79.0789C1233.92 81.6424 1238.57 85.5672 1241.86 91.2964C1243.96 95.9336 1244.9 101.37 1244.88 106.601C1244.77 113.28 1244.02 119.192 1241.45 125.135C1238.26 132.202 1233.11 136.967 1226.54 139.753C1217.97 143.576 1209.25 145.065 1200.42 146.11C1199.03 146.023 1198.3 146.704 1198.21 148.152C1198.33 155.717 1198.57 163.726 1198.69 171.292C1198.72 173.183 1198.84 173.626 1196.49 173.334C1192.44 173.516 1187.85 173.374 1183.8 173.556C1182.41 173.469 1182.3 173.026 1182.5 172.021C1182.26 164.012 1182.03 156.004 1182.33 148.32C1182.1 147.433 1182.41 146.871 1181.45 146.666C1177.83 146.729 1174.2 146.793 1170.15 146.975C1170.33 151.201 1170.08 155.546 1170.25 159.772C1170.43 163.998 1170.18 168.342 1170.35 172.568C1170.16 173.573 1170.27 174.016 1168.88 173.93C1164.3 173.788 1159.82 174.089 1155.35 174.39C1153.96 174.303 1153.85 173.86 1154.05 172.855C1153.81 164.846 1153.57 156.837 1153.88 149.153C1153.76 148.71 1154.07 148.148 1153.85 147.262C1143.4 147.334 1132.95 147.406 1122.08 147.597C1122.47 145.587 1122.56 144.139 1122.95 142.129C1123.63 137.665 1124.3 133.202 1124.66 129.3C1124.75 127.852 1125.17 127.733 1126.45 127.377C1129.64 127.432 1133.27 127.369 1136.35 126.98C1139.98 126.917 1142.07 124.432 1141.7 121.211C1141.42 97.0666 1141.13 72.9219 1140.31 48.4528C1140.25 44.6701 1137.11 41.2754 1132.94 41.0146C1128.78 40.7538 1124.73 40.9362 1121.11 40.9998C1120.26 41.2373 1119.72 40.9129 1119.92 39.9078C1119.94 34.6769 1119.85 29.0028 1119.87 23.7718C1118.51 25.5763 1118.51 25.5762 1118.83 25.0143ZM1168.58 128.418C1169 128.299 1169.54 128.624 1169.54 128.624C1176.79 128.496 1184.57 128.693 1191.9 127.118C1197.11 126.136 1201.78 124.83 1206 121.751C1213.38 116.836 1213.93 104.807 1207.44 99.0232C1204.41 96.0717 1200.44 94.8059 1196.48 93.54C1187.7 91.2458 1178.33 91.9668 1169.38 92.5691C1168 92.4822 1168.11 92.9253 1168.03 94.3735C1168.31 99.0426 1168.06 103.387 1168.35 108.056C1168.25 114.735 1168.57 121.296 1168.58 128.418ZM1192.63 73.2417C1193.48 73.0042 1195.49 71.9674 1197.08 71.0492C1204.69 67.0205 1206.43 56.0836 1200.25 49.7374C1197.1 46.3427 1192.6 44.7524 1188.32 44.0485C1181.7 43.052 1175.41 43.3849 1168.59 43.3934C1167.2 43.3065 1166.89 43.8684 1166.81 45.3166C1167.08 55.2166 1167.23 64.6735 1167.07 74.6922C1166.87 75.6973 1167.41 76.0217 1168.37 76.2274C1170.19 76.1956 1171.57 76.2825 1173.38 76.2507C1179.98 75.3558 1185.84 75.1416 1192.63 73.2417Z" fill="#F7931A"/>
</g>
<defs>
<filter id="filter0_f_15_48" x="0.0641479" y="-92" width="1462.28" height="538.256" filterUnits="userSpaceOnUse" color-interpolation-filters="sRGB">
<feFlood flood-opacity="0" result="BackgroundImageFix"/>
<feBlend mode="normal" in="SourceGraphic" in2="BackgroundImageFix" result="shape"/>
<feGaussianBlur stdDeviation="19" result="effect1_foregroundBlur_15_48"/>
</filter>
</defs>
</svg>
