<svg width="1440" height="456" viewBox="0 0 1440 456" fill="none" xmlns="http://www.w3.org/2000/svg">
<g opacity="0.3">
<path d="M28.2035 176.317C34.3027 175.241 40.174 173.652 46.2732 172.577C52.3725 171.501 58.2437 169.912 64.343 168.837C66.0478 168.637 66.3122 167.885 66.1207 166.105C64.2153 156.417 62.5377 147.243 60.6322 137.555C60.4407 135.776 60.7051 135.024 62.41 134.824C68.0169 133.987 72.9036 132.873 78.2825 131.522C79.9874 131.322 80.2153 131.836 80.1789 133.102C81.8564 142.276 83.7619 151.963 85.4395 161.137C85.6674 161.651 85.8953 162.165 85.8589 163.431C90.2532 162.555 95.1399 161.442 99.5342 160.566C100.026 160.328 100.063 159.063 100.327 158.311C98.8413 150.917 97.5831 144.036 96.5893 136.404C96.1699 134.11 95.7506 131.817 95.3312 129.523C94.8753 128.495 95.1397 127.744 96.3523 127.782C101.959 126.944 107.338 125.593 113.437 124.517C113.93 124.279 114.157 124.793 114.65 124.555C116.136 131.95 117.394 138.83 118.652 145.711C119.3 148.518 119.947 151.326 120.102 154.371C120.293 156.151 121.014 156.427 122.718 156.227C129.274 156.179 135.829 156.131 142.384 156.084C148.674 156.788 154.929 158.758 160.654 162.231C168.504 167.799 172.643 175.783 174.32 184.957C175.351 191.324 175.661 197.414 173.546 203.429C171.959 207.94 168.932 211.899 165.678 215.344C165.185 215.582 164.921 216.333 163.936 216.809C166.589 217.399 169.014 217.475 171.668 218.065C179.627 219.835 186.072 223.585 191.233 229.828C194.724 235.005 196.967 241.41 197.997 247.776C199.219 255.922 199.493 263.279 197.569 271.073C195.117 280.371 189.82 287.299 182.399 292.133C172.744 298.671 162.442 302.402 151.912 305.618C150.207 305.818 149.45 306.808 149.642 308.588C151.319 317.762 153.225 327.45 154.902 336.624C155.322 338.917 155.549 339.431 152.632 339.593C147.745 340.706 142.138 341.544 137.252 342.657C135.547 342.857 135.319 342.343 135.355 341.077C133.45 331.39 131.544 321.702 130.359 312.29C129.903 311.262 130.168 310.51 128.955 310.472C124.561 311.348 120.167 312.223 115.28 313.337C116.347 318.438 116.921 323.776 117.988 328.877C119.054 333.978 119.629 339.317 120.695 344.418C120.659 345.684 120.887 346.197 119.182 346.397C113.575 347.235 108.196 348.586 102.817 349.938C101.112 350.137 100.884 349.624 100.921 348.358C99.0155 338.67 97.11 328.982 95.9248 319.57C95.6968 319.056 95.9612 318.304 95.5054 317.277C82.8146 319.665 70.1239 322.054 56.9408 324.681C57.0138 322.149 56.8223 320.37 56.8952 317.838C56.8131 312.262 56.7311 306.685 56.3846 301.86C56.1931 300.08 56.6854 299.842 58.1624 299.129C62.0644 298.491 66.4588 297.615 70.1329 296.464C74.5272 295.588 76.5694 292.105 75.4662 288.27C70.2421 258.968 65.0179 229.667 59.0735 200.089C58.2348 195.502 53.7219 192.067 48.6073 192.666C43.4927 193.266 38.606 194.379 34.2117 195.255C33.227 195.731 32.5068 195.455 32.5433 194.189C31.513 187.822 30.2549 180.942 29.2246 174.575C27.9391 177.069 27.9391 177.069 28.2035 176.317ZM109.609 291.115C110.101 290.877 110.822 291.153 110.822 291.153C119.61 289.402 129.119 287.927 137.716 284.396C143.852 282.055 149.268 279.438 153.771 274.766C161.758 267.162 159.998 252.411 150.936 246.806C146.651 243.884 141.573 243.218 136.495 242.552C125.354 241.695 114.103 244.636 103.345 247.339C101.641 247.539 101.869 248.053 102.06 249.832C103.355 255.447 103.929 260.786 105.224 266.401C106.445 274.547 108.159 282.455 109.609 291.115ZM127.715 218.713C128.699 218.237 130.933 216.533 132.674 215.068C141.117 208.492 141.025 194.807 132.228 188.45C127.715 185.014 121.916 184.072 116.574 184.158C108.314 184.405 100.738 186.195 92.4414 187.708C90.7365 187.908 90.4722 188.66 90.6636 190.439C92.9885 202.421 95.0855 213.888 96.918 226.107C96.8816 227.373 97.6018 227.649 98.8144 227.687C101.011 227.249 102.716 227.049 104.913 226.612C112.754 224.071 119.838 222.519 127.715 218.713Z" fill="#F7CD3A"/>
<path d="M406.057 90.5395C411.709 93.163 417.444 95.2267 423.096 97.8501C428.748 100.474 434.482 102.537 440.134 105.161C441.66 105.978 442.279 105.504 443.062 103.911C446.605 94.7381 450.065 86.1254 453.608 76.9528C454.391 75.3594 455.01 74.8855 456.536 75.7027C461.652 78.2404 466.314 80.1324 471.512 82.1102C473.038 82.9275 472.956 83.4873 472.255 84.5209C468.795 93.1337 465.252 102.306 461.791 110.919C461.709 111.479 461.627 112.038 460.926 113.072C465.051 114.878 469.713 116.77 473.839 118.577C474.375 118.662 475.076 117.629 475.694 117.155C478.372 110.135 480.967 103.676 484.181 96.7424C485.046 94.5892 485.912 92.436 486.777 90.2828C486.941 89.1633 487.56 88.6894 488.55 89.4208C493.666 91.9584 498.864 93.9363 504.516 96.5597C505.052 96.6456 504.97 97.2053 505.506 97.2912C502.828 104.31 500.233 110.77 497.637 117.23C496.69 119.943 495.743 122.656 494.259 125.283C493.476 126.876 493.93 127.522 495.456 128.339C500.944 132.082 506.432 135.825 511.919 139.568C516.788 143.785 520.957 149.035 523.888 155.234C527.481 164.402 526.701 173.444 523.241 182.057C520.727 187.957 517.76 193.211 512.812 197.003C509.102 199.846 504.483 201.398 499.946 202.391C499.41 202.305 498.791 202.779 497.719 202.607C499.617 204.63 501.598 206.093 503.496 208.116C509.191 214.183 512.576 221.027 513.57 229.207C513.738 235.536 512.215 242.168 509.702 248.067C506.405 255.561 502.738 261.848 497.007 267.233C490.039 273.566 481.956 276.283 473.212 276.029C461.704 275.905 451.143 273.069 440.665 269.673C439.139 268.856 437.984 269.244 437.201 270.838C433.74 279.45 430.197 288.623 426.737 297.236C425.872 299.389 425.789 299.948 423.273 298.4C418.611 296.508 413.495 293.97 408.833 292.078C407.307 291.261 407.389 290.701 408.09 289.667C411.633 280.495 415.175 271.322 419.172 262.795C419.337 261.676 419.955 261.202 418.965 260.471C414.839 258.664 410.714 256.858 406.052 254.966C404.24 259.832 401.891 264.613 400.078 269.479C398.266 274.345 395.917 279.125 394.104 283.991C393.404 285.025 393.321 285.585 391.795 284.768C386.679 282.23 381.481 280.252 376.283 278.274C374.757 277.457 374.839 276.897 375.54 275.864C379.082 266.691 382.625 257.519 386.622 248.992C386.704 248.432 387.323 247.958 387.487 246.838C375.647 241.506 363.807 236.173 351.43 230.754C352.832 228.687 353.615 227.094 355.016 225.026C357.901 220.332 360.786 215.637 363.053 211.417C363.836 209.823 364.372 209.909 365.981 210.167C369.57 211.887 373.695 213.693 377.367 214.854C381.492 216.66 385.039 214.936 386.151 211.104C397.316 183.672 408.481 156.24 419.191 128.163C420.922 123.856 418.981 118.389 414.401 115.938C409.822 113.486 405.16 111.594 401.034 109.788C399.962 109.616 399.508 108.97 400.208 107.937C402.722 102.037 405.317 95.5773 407.83 89.6775C405.439 91.0135 405.439 91.0135 406.057 90.5395ZM413.095 233.177C413.631 233.263 414.085 233.908 414.085 233.908C422.336 237.521 431.041 241.779 440.075 243.798C446.428 245.387 452.327 246.332 458.554 245.037C469.237 243.309 475.582 230.002 470.999 220.101C468.976 215.194 465.097 211.709 461.218 208.223C452.388 201.081 441.456 197.039 431.06 193.084C429.533 192.266 429.451 192.826 428.668 194.419C426.773 199.845 424.424 204.626 422.53 210.052C419.234 217.545 416.474 225.124 413.095 233.177ZM466.527 183.292C467.6 183.464 470.363 183.333 472.59 183.117C483.108 182.508 490.28 171.052 486.315 160.678C484.374 155.211 480.041 151.08 475.544 148.068C468.53 143.508 461.269 140.627 453.554 137.101C452.028 136.283 451.409 136.757 450.626 138.351C446.218 149.676 441.892 160.442 436.948 171.682C436.247 172.716 436.701 173.361 437.692 174.093C439.754 174.996 441.281 175.813 443.344 176.716C451.223 179.123 457.947 181.918 466.527 183.292Z" fill="#F7CD3A"/>
<path d="M898.203 283.005C903.099 279.059 907.562 274.771 912.458 270.825C917.354 266.879 921.817 262.591 926.713 258.645C928.127 257.631 928.021 256.838 927.049 255.362C920.999 247.751 915.381 240.482 909.33 232.871C908.359 231.396 908.253 230.602 909.667 229.588C914.236 226.094 918.045 222.71 922.181 218.874C923.595 217.86 924.028 218.201 924.566 219.336C930.184 226.605 936.235 234.216 941.853 241.485C942.285 241.826 942.718 242.168 943.257 243.302C946.739 240.37 950.548 236.987 954.03 234.054C954.357 233.603 953.818 232.468 953.712 231.675C949.066 225.882 944.853 220.43 940.534 214.184C939.129 212.367 937.725 210.55 936.32 208.733C935.455 208.05 935.349 207.257 936.436 206.694C941.005 203.2 945.141 199.364 950.037 195.418C950.364 194.966 950.797 195.308 951.124 194.856C955.77 200.649 959.983 206.101 964.196 211.553C966.034 213.712 967.871 215.87 969.381 218.481C970.353 219.957 971.113 219.846 972.527 218.832C978.288 215.569 984.05 212.305 989.812 209.042C995.679 206.571 1002.09 205.236 1008.7 205.487C1018.14 206.54 1025.39 211.55 1031.01 218.82C1034.79 223.93 1037.81 229.151 1038.66 235.497C1039.29 240.256 1038.41 245.236 1037.09 249.875C1036.76 250.327 1036.87 251.12 1036.22 252.024C1038.82 251.241 1041 250.116 1043.6 249.333C1051.42 246.983 1058.8 247.123 1066.17 250.095C1071.58 252.946 1076.45 257.495 1080.23 262.605C1084.98 269.192 1088.54 275.547 1090.36 283.369C1092.39 292.777 1090.84 301.492 1086.48 309.405C1080.91 319.918 1073.5 328.272 1065.66 336.284C1064.25 337.299 1064.03 338.544 1065 340.02C1070.62 347.289 1076.67 354.899 1082.28 362.169C1083.69 363.986 1084.12 364.327 1081.62 365.904C1077.81 369.288 1073.24 372.782 1069.43 376.166C1068.02 377.18 1067.59 376.839 1067.05 375.704C1061 368.094 1054.95 360.483 1049.66 352.762C1048.79 352.079 1048.69 351.286 1047.6 351.848C1044.12 354.78 1040.63 357.712 1036.83 361.096C1040.07 365.072 1042.98 369.5 1046.22 373.476C1049.47 377.452 1052.38 381.88 1055.62 385.856C1056.16 386.99 1056.59 387.332 1055.18 388.346C1050.61 391.84 1046.47 395.676 1042.34 399.512C1040.92 400.526 1040.49 400.184 1039.95 399.05C1033.9 391.439 1027.85 383.829 1022.56 376.108C1022.13 375.766 1022.02 374.973 1021.16 374.29C1011.04 382.634 1000.92 390.979 990.473 399.775C989.395 397.506 988.424 396.03 987.346 393.76C984.759 388.881 982.171 384.001 979.689 379.915C978.718 378.439 979.045 377.987 980.026 376.631C983.181 374.151 986.663 371.219 989.385 368.398C992.867 365.466 993.097 361.389 990.394 358.548C972.569 335.264 954.745 311.98 936.16 288.807C933.351 285.173 927.82 284.359 923.578 287.402C919.336 290.444 915.527 293.828 912.045 296.76C911.391 297.664 910.631 297.774 910.093 296.64C906.312 291.529 902.099 286.077 898.318 280.967C898.309 283.798 898.309 283.798 898.203 283.005ZM1021.8 344.279C1022.13 343.827 1022.89 343.716 1022.89 343.716C1029.85 337.852 1037.57 331.878 1043.57 324.538C1047.92 319.457 1051.52 314.487 1053.39 308.151C1057 297.518 1048.8 285.369 1038.27 284.877C1033.18 284.405 1028.4 286.313 1023.62 288.221C1013.4 292.941 1004.8 301.064 996.529 308.736C995.115 309.75 995.548 310.091 996.52 311.567C1000.19 315.884 1003.11 320.312 1006.78 324.63C1011.54 331.216 1016.61 337.351 1021.8 344.279ZM1005.12 271.504C1005.77 270.601 1006.97 268 1007.85 265.851C1012.33 255.901 1006.08 243.872 995.45 242.587C989.919 241.774 984.378 243.793 979.703 246.494C972.528 250.772 966.651 256.073 960.014 261.485C958.6 262.5 958.706 263.293 959.677 264.769C967.132 274.197 974.155 283.283 981.283 293.163C981.821 294.298 982.581 294.187 983.668 293.625C985.409 292.159 986.823 291.145 988.564 289.679C994.335 283.584 999.885 278.734 1005.12 271.504Z" fill="#F7CD3A"/>
<path d="M1306.98 52.3636C1312.16 55.8886 1317.51 58.8744 1322.7 62.3994C1327.88 65.9243 1333.23 68.9101 1338.41 72.4351C1339.79 73.4945 1340.48 73.1288 1341.49 71.6849C1346.38 63.2141 1351.1 55.2824 1355.99 46.8115C1357.01 45.3677 1357.69 45.002 1359.08 46.0614C1363.74 49.4129 1368.06 52.0519 1372.89 54.8643C1374.27 55.9237 1374.11 56.4628 1373.26 57.3675C1368.53 65.2993 1363.64 73.7701 1358.92 81.7019C1358.75 82.241 1358.59 82.78 1357.74 83.6848C1361.54 86.1504 1365.85 88.7894 1369.65 91.255C1370.17 91.4284 1371.02 90.5236 1371.7 90.158C1375.41 83.6701 1378.95 77.7212 1383.18 71.4068C1384.36 69.4238 1385.54 67.4409 1386.72 65.458C1387.05 64.3798 1387.74 64.0141 1388.6 64.9001C1393.27 68.2516 1398.1 71.064 1403.28 74.5889C1403.8 74.7624 1403.63 75.3015 1404.15 75.4749C1400.44 81.9628 1396.9 87.9116 1393.36 93.8604C1392.01 96.3824 1390.66 98.9045 1388.8 101.253C1387.78 102.697 1388.13 103.409 1389.52 104.469C1394.37 109.072 1399.22 113.675 1404.07 118.278C1408.23 123.247 1411.55 129.12 1413.51 135.725C1415.66 145.373 1413.52 154.171 1408.8 162.103C1405.42 167.513 1401.69 172.21 1396.23 175.135C1392.14 177.329 1387.34 178.098 1382.71 178.328C1382.19 178.155 1381.51 178.52 1380.48 178.174C1382.05 180.485 1383.78 182.256 1385.35 184.567C1390.05 191.5 1392.35 198.818 1392.09 207.059C1391.3 213.336 1388.79 219.631 1385.41 225.041C1381.02 231.895 1376.44 237.496 1369.97 241.866C1362.13 246.966 1353.73 248.312 1345.14 246.615C1333.79 244.591 1323.8 240.044 1313.97 234.958C1312.58 233.899 1311.39 234.091 1310.37 235.535C1305.65 243.467 1300.76 251.937 1296.03 259.869C1294.85 261.852 1294.68 262.391 1292.43 260.446C1288.12 257.807 1283.45 254.455 1279.14 251.816C1277.75 250.757 1277.92 250.218 1278.77 249.313C1283.66 240.842 1288.55 232.371 1293.79 224.613C1294.12 223.535 1294.8 223.169 1293.94 222.283C1290.14 219.818 1286.34 217.352 1282.02 214.713C1279.5 219.218 1276.45 223.55 1273.92 228.055C1271.39 232.56 1268.35 236.891 1265.82 241.396C1264.97 242.301 1264.81 242.84 1263.42 241.781C1258.76 238.429 1253.93 235.617 1249.09 232.804C1247.71 231.745 1247.88 231.206 1248.72 230.301C1253.61 221.83 1258.51 213.359 1263.75 205.601C1263.91 205.062 1264.59 204.696 1264.93 203.618C1254.05 196.395 1243.16 189.172 1231.77 181.775C1233.46 179.965 1234.48 178.521 1236.18 176.712C1239.74 172.554 1243.3 168.396 1246.18 164.603C1247.19 163.159 1247.71 163.333 1249.26 163.853C1252.54 166.145 1256.34 168.611 1259.79 170.364C1263.59 172.829 1267.35 171.714 1269.03 168.113C1284.22 142.874 1299.4 117.635 1314.24 91.6837C1316.6 87.7178 1315.52 81.9988 1311.37 78.8208C1307.22 75.6427 1302.9 73.0037 1299.1 70.5381C1298.07 70.1912 1297.72 69.4787 1298.57 68.574C1301.94 63.1642 1305.49 57.2154 1308.86 51.8057C1306.3 52.7293 1306.3 52.7293 1306.98 52.3636ZM1292.28 194.364C1292.8 194.537 1293.15 195.25 1293.15 195.25C1300.75 200.181 1308.7 205.824 1317.31 209.312C1323.34 211.932 1329.02 213.84 1335.37 213.591C1346.18 213.651 1354.46 201.561 1351.44 191.028C1350.19 185.849 1346.89 181.766 1343.59 177.683C1335.95 169.17 1325.77 163.372 1316.11 157.747C1314.72 156.688 1314.56 157.227 1313.54 158.671C1310.85 163.715 1307.8 168.046 1305.11 173.09C1300.72 179.944 1296.84 186.971 1292.28 194.364ZM1352.61 153.944C1353.65 154.291 1356.39 154.619 1358.63 154.774C1369.1 155.912 1377.92 145.787 1375.58 134.888C1374.5 129.169 1370.84 124.373 1366.86 120.656C1360.63 114.994 1353.9 110.949 1346.81 106.191C1345.43 105.131 1344.75 105.497 1343.73 106.941C1337.66 117.395 1331.76 127.309 1325.17 137.59C1324.32 138.495 1324.67 139.207 1325.54 140.093C1327.44 141.326 1328.82 142.385 1330.72 143.618C1338.13 147.297 1344.35 151.169 1352.61 153.944Z" fill="#F7CD3A"/>
<path d="M1143.23 290.875C1146.18 290.065 1149 289.012 1151.95 288.202C1154.9 287.391 1157.72 286.339 1160.67 285.528C1161.5 285.351 1161.59 284.97 1161.42 284.104C1160.08 279.434 1158.86 275.005 1157.52 270.335C1157.35 269.469 1157.44 269.088 1158.27 268.911C1160.99 268.24 1163.34 267.467 1165.93 266.554C1166.76 266.377 1166.89 266.619 1166.93 267.242C1168.14 271.671 1169.49 276.342 1170.7 280.77C1170.84 281.012 1170.97 281.254 1171.01 281.877C1173.13 281.244 1175.48 280.471 1177.6 279.837C1177.83 279.698 1177.8 279.074 1177.9 278.693C1176.85 275.129 1175.94 271.808 1175.13 268.105C1174.83 266.998 1174.52 265.89 1174.22 264.783C1173.95 264.299 1174.05 263.918 1174.65 263.881C1177.36 263.21 1179.95 262.297 1182.9 261.486C1183.13 261.347 1183.27 261.589 1183.5 261.449C1184.54 265.012 1185.45 268.334 1186.36 271.656C1186.8 273.005 1187.24 274.354 1187.44 275.842C1187.61 276.708 1187.98 276.81 1188.81 276.633C1192.02 276.306 1195.24 275.979 1198.46 275.653C1201.58 275.707 1204.74 276.386 1207.7 277.827C1211.79 280.198 1214.16 283.929 1215.37 288.357C1216.15 291.437 1216.56 294.414 1215.78 297.467C1215.19 299.756 1213.87 301.841 1212.42 303.684C1212.19 303.823 1212.09 304.205 1211.63 304.484C1212.95 304.651 1214.15 304.576 1215.48 304.743C1219.46 305.244 1222.79 306.788 1225.59 309.616C1227.52 311.997 1228.9 315.039 1229.67 318.119C1230.62 322.064 1231.06 325.665 1230.45 329.582C1229.64 334.263 1227.33 337.911 1223.89 340.629C1219.43 344.288 1214.53 346.597 1209.49 348.664C1208.66 348.841 1208.33 349.363 1208.5 350.228C1209.72 354.657 1211.06 359.327 1212.28 363.756C1212.58 364.863 1212.71 365.105 1211.29 365.319C1208.93 366.093 1206.22 366.763 1203.86 367.536C1203.03 367.714 1202.9 367.472 1202.86 366.848C1201.52 362.178 1200.17 357.507 1199.19 352.939C1198.92 352.455 1199.02 352.073 1198.42 352.111C1196.3 352.744 1194.18 353.378 1191.82 354.151C1192.57 356.607 1193.07 359.203 1193.81 361.659C1194.56 364.115 1195.06 366.711 1195.8 369.168C1195.84 369.791 1195.97 370.033 1195.15 370.21C1192.43 370.881 1189.84 371.794 1187.26 372.706C1186.43 372.883 1186.29 372.641 1186.26 372.018C1184.91 367.347 1183.56 362.677 1182.58 358.108C1182.45 357.867 1182.55 357.485 1182.28 357.001C1176.15 358.762 1170.01 360.523 1163.65 362.423C1163.58 361.176 1163.41 360.311 1163.34 359.064C1163.06 356.328 1162.78 353.593 1162.41 351.239C1162.24 350.374 1162.47 350.234 1163.16 349.815C1165.05 349.321 1167.18 348.688 1168.93 347.952C1171.05 347.319 1171.91 345.513 1171.2 343.68C1167.39 329.529 1163.58 315.377 1159.41 301.124C1158.8 298.909 1156.44 297.431 1153.95 297.962C1151.46 298.493 1149.11 299.266 1146.99 299.9C1146.52 300.179 1146.16 300.077 1146.12 299.453C1145.35 296.374 1144.44 293.052 1143.66 289.972C1143.13 291.257 1143.13 291.257 1143.23 290.875ZM1188.1 343.498C1188.33 343.358 1188.69 343.461 1188.69 343.461C1192.94 342.194 1197.54 341.029 1201.62 338.897C1204.53 337.463 1207.08 335.927 1209.09 333.423C1212.69 329.318 1211.2 322.154 1206.51 319.82C1204.28 318.583 1201.76 318.491 1199.24 318.399C1193.73 318.494 1188.33 320.459 1183.16 322.284C1182.33 322.462 1182.46 322.703 1182.63 323.569C1183.51 326.267 1184.02 328.863 1184.89 331.561C1185.84 335.506 1187.02 339.311 1188.1 343.498ZM1193.91 307.095C1194.38 306.816 1195.4 305.876 1196.2 305.075C1200.06 301.454 1199.44 294.737 1194.85 292.021C1192.48 290.542 1189.59 290.348 1186.97 290.637C1182.93 291.141 1179.28 292.371 1175.27 293.498C1174.44 293.675 1174.34 294.056 1174.51 294.922C1176.16 300.699 1177.68 306.235 1179.1 312.153C1179.14 312.776 1179.5 312.878 1180.1 312.841C1181.16 312.524 1181.99 312.347 1183.05 312.031C1186.79 310.42 1190.21 309.33 1193.91 307.095Z" fill="#F7CD3A"/>
<path d="M616.232 122.817C619.183 122.006 621.999 120.954 624.95 120.143C627.9 119.333 630.716 118.28 633.667 117.47C634.496 117.293 634.594 116.911 634.424 116.046C633.077 111.375 631.863 106.947 630.515 102.276C630.346 101.411 630.444 101.029 631.273 100.852C633.991 100.181 636.344 99.4083 638.929 98.4955C639.758 98.3185 639.892 98.5603 639.928 99.1838C641.141 103.612 642.489 108.283 643.703 112.712C643.836 112.954 643.97 113.196 644.006 113.819C646.127 113.186 648.48 112.412 650.602 111.779C650.833 111.639 650.798 111.016 650.896 110.634C649.851 107.071 648.941 103.749 648.129 100.046C647.825 98.9392 647.522 97.832 647.219 96.7248C646.951 96.2411 647.049 95.8595 647.646 95.8221C650.365 95.1512 652.95 94.2385 655.9 93.428C656.132 93.2883 656.265 93.5302 656.497 93.3906C657.541 96.954 658.451 100.276 659.362 103.597C659.799 104.946 660.236 106.295 660.442 107.784C660.611 108.649 660.977 108.751 661.806 108.574C665.024 108.248 668.242 107.921 671.459 107.594C674.579 107.649 677.735 108.327 680.695 109.768C684.787 112.14 687.16 115.87 688.373 120.299C689.15 123.379 689.561 126.356 688.777 129.408C688.19 131.697 686.871 133.782 685.419 135.625C685.187 135.765 685.089 136.146 684.625 136.426C685.954 136.593 687.148 136.518 688.476 136.685C692.461 137.186 695.787 138.729 698.586 141.557C700.522 143.939 701.895 146.981 702.672 150.06C703.618 154.005 704.065 157.606 703.451 161.524C702.641 166.204 700.333 169.853 696.893 172.571C692.429 176.229 687.527 178.539 682.491 180.606C681.662 180.783 681.332 181.304 681.502 182.169C682.715 186.598 684.063 191.269 685.277 195.697C685.58 196.805 685.714 197.047 684.288 197.261C681.934 198.034 679.216 198.705 676.863 199.478C676.034 199.655 675.9 199.413 675.864 198.79C674.517 194.119 673.169 189.449 672.187 184.88C671.92 184.396 672.018 184.015 671.42 184.052C669.299 184.686 667.178 185.319 664.825 186.092C665.565 188.549 666.074 191.144 666.815 193.601C667.555 196.057 668.064 198.653 668.805 201.109C668.841 201.733 668.975 201.974 668.146 202.151C665.427 202.822 662.842 203.735 660.257 204.648C659.428 204.825 659.295 204.583 659.259 203.96C657.911 199.289 656.564 194.618 655.582 190.05C655.448 189.808 655.546 189.427 655.279 188.943C649.146 190.704 643.014 192.464 636.65 194.365C636.578 193.118 636.408 192.252 636.337 191.006C636.06 188.27 635.782 185.534 635.407 183.18C635.238 182.315 635.469 182.176 636.165 181.757C638.054 181.263 640.176 180.629 641.931 179.894C644.053 179.26 644.908 177.455 644.203 175.622C640.393 161.471 636.582 147.319 632.406 133.065C631.799 130.851 629.436 129.372 626.949 129.904C624.462 130.435 622.109 131.208 619.988 131.841C619.525 132.121 619.159 132.018 619.123 131.395C618.347 128.315 617.436 124.994 616.66 121.914C616.134 123.198 616.134 123.198 616.232 122.817ZM661.095 175.44C661.327 175.3 661.693 175.402 661.693 175.402C665.935 174.135 670.543 172.971 674.617 170.838C677.531 169.404 680.08 167.868 682.094 165.365C685.694 161.26 684.203 154.096 679.513 151.762C677.285 150.525 674.762 150.433 672.239 150.341C666.73 150.435 661.329 152.401 656.159 154.226C655.33 154.403 655.464 154.645 655.634 155.51C656.508 158.208 657.017 160.804 657.891 163.502C658.838 167.447 660.015 171.253 661.095 175.44ZM666.914 139.037C667.377 138.758 668.402 137.817 669.195 137.017C673.063 133.396 672.437 126.678 667.845 123.963C665.483 122.484 662.594 122.29 659.974 122.579C655.927 123.083 652.281 124.312 648.27 125.439C647.441 125.616 647.344 125.998 647.513 126.863C649.164 132.641 650.681 138.177 652.1 144.094C652.136 144.718 652.502 144.82 653.099 144.783C654.16 144.466 654.989 144.289 656.049 143.972C659.793 142.361 663.206 141.271 666.914 139.037Z" fill="#F7CD3A"/>
<path d="M261.86 127.245C264.007 129.507 266.289 131.527 268.436 133.789C270.584 136.05 272.865 138.07 275.013 140.332C275.574 140.993 275.94 140.891 276.573 140.305C279.774 136.751 282.842 133.44 286.043 129.886C286.676 129.3 287.041 129.198 287.603 129.859C289.519 131.981 291.337 133.722 293.386 135.602C293.948 136.263 293.814 136.505 293.315 136.849C290.247 140.16 287.046 143.714 283.978 147.025C283.845 147.267 283.711 147.509 283.212 147.853C284.798 149.454 286.616 151.195 288.202 152.796C288.434 152.935 288.933 152.591 289.298 152.489C291.733 149.764 294.033 147.28 296.7 144.694C297.466 143.866 298.233 143.038 299 142.21C299.268 141.727 299.633 141.624 299.963 142.146C301.879 144.268 303.928 146.148 306.076 148.41C306.308 148.55 306.174 148.791 306.406 148.931C303.971 151.657 301.671 154.14 299.37 156.624C298.469 157.694 297.569 158.763 296.436 159.693C295.803 160.279 295.901 160.661 296.463 161.322C298.343 164.067 300.223 166.813 302.103 169.559C303.617 172.406 304.633 175.598 304.917 178.995C304.995 183.88 303.087 187.889 300.019 191.201C297.852 193.443 295.588 195.303 292.664 196.121C290.47 196.734 288.082 196.585 285.826 196.193C285.595 196.053 285.229 196.156 284.766 195.876C285.291 197.161 285.951 198.203 286.476 199.487C288.053 203.34 288.435 207.118 287.489 211.063C286.481 214.003 284.643 216.766 282.477 219.007C279.677 221.835 276.913 224.04 273.356 225.443C269.067 227.052 264.887 226.79 260.912 225.039C255.644 222.832 251.277 219.555 247.044 216.037C246.483 215.376 245.885 215.338 245.252 215.924C242.185 219.236 238.984 222.789 235.916 226.101C235.149 226.929 235.016 227.171 234.124 225.989C232.307 224.248 230.391 222.126 228.573 220.385C228.011 219.724 228.145 219.482 228.644 219.138C231.846 215.585 235.047 212.032 238.346 208.86C238.614 208.376 238.979 208.274 238.65 207.752C237.063 206.152 235.477 204.551 233.659 202.81C231.992 204.708 230.092 206.466 228.425 208.363C226.757 210.261 224.858 212.019 223.191 213.916C222.691 214.261 222.558 214.502 221.996 213.842C220.08 211.719 218.031 209.839 215.981 207.959C215.42 207.298 215.553 207.056 216.053 206.712C219.254 203.159 222.455 199.605 225.754 196.433C225.888 196.192 226.254 196.089 226.521 195.606C221.994 190.942 217.467 186.279 212.709 181.476C213.707 180.788 214.34 180.202 215.339 179.514C217.47 177.895 219.601 176.277 221.366 174.761C221.999 174.175 222.231 174.315 222.926 174.733C224.281 176.195 225.867 177.796 227.355 179.015C228.942 180.616 230.867 180.487 232.035 178.933C241.871 168.412 251.706 157.892 261.444 146.99C262.977 145.334 263.023 142.459 261.339 140.476C259.655 138.494 257.837 136.753 256.25 135.152C255.787 134.873 255.689 134.491 256.188 134.147C258.355 131.906 260.656 129.422 262.823 127.18C261.494 127.347 261.494 127.347 261.86 127.245ZM240.633 194.112C240.864 194.252 240.962 194.633 240.962 194.633C244.135 197.835 247.405 201.419 251.211 204.035C253.858 205.952 256.406 207.489 259.491 208.057C264.696 209.259 269.894 204.329 269.486 198.923C269.398 196.29 268.213 193.963 267.028 191.637C264.195 186.704 259.864 182.804 255.764 179.043C255.203 178.382 255.069 178.624 254.436 179.21C252.635 181.35 250.736 183.108 248.934 185.247C246.134 188.075 243.566 191.043 240.633 194.112ZM273.744 181.171C274.207 181.45 275.499 181.907 276.56 182.223C281.498 183.909 286.758 179.984 286.716 174.476C286.761 171.6 285.478 168.892 283.928 166.668C281.486 163.262 278.644 160.581 275.703 157.518C275.142 156.858 274.776 156.96 274.143 157.546C270.175 161.927 266.341 166.067 262.141 170.308C261.641 170.652 261.739 171.034 262.069 171.555C262.862 172.355 263.424 173.016 264.217 173.817C267.425 176.395 270.036 178.936 273.744 181.171Z" fill="#F7CD3A"/>
<path d="M332.806 305.153C335.441 306.758 338.145 308.093 340.781 309.697C343.416 311.302 346.12 312.636 348.756 314.241C349.462 314.728 349.789 314.53 350.256 313.793C352.467 309.496 354.609 305.468 356.82 301.171C357.286 300.434 357.614 300.237 358.32 300.723C360.696 302.256 362.884 303.446 365.33 304.708C366.036 305.195 365.967 305.465 365.57 305.932C363.428 309.959 361.217 314.256 359.075 318.284C359.006 318.554 358.937 318.823 358.54 319.291C360.469 320.409 362.656 321.599 364.586 322.717C364.844 322.789 365.241 322.322 365.569 322.124C367.244 318.834 368.851 315.813 370.785 312.595C371.32 311.588 371.856 310.582 372.391 309.575C372.53 309.035 372.857 308.838 373.305 309.252C375.682 310.784 378.128 312.047 380.763 313.651C381.022 313.723 380.952 313.993 381.211 314.066C379.535 317.356 377.929 320.376 376.322 323.397C375.718 324.674 375.113 325.95 374.25 327.155C373.784 327.892 373.973 328.234 374.679 328.72C377.176 330.865 379.672 333.009 382.169 335.153C384.338 337.494 386.11 340.303 387.227 343.507C388.514 348.204 387.664 352.593 385.523 356.621C383.985 359.371 382.259 361.78 379.637 363.36C377.671 364.545 375.327 365.046 373.051 365.277C372.793 365.205 372.465 365.402 371.948 365.258C372.774 366.356 373.67 367.185 374.496 368.283C376.974 371.579 378.28 375.125 378.344 379.191C378.099 382.303 377.01 385.468 375.472 388.219C373.469 391.707 371.346 394.583 368.258 396.9C364.515 399.612 360.411 400.488 356.138 399.871C350.502 399.163 345.472 397.177 340.511 394.922C339.804 394.435 339.218 394.561 338.752 395.298C336.61 399.325 334.399 403.622 332.257 407.65C331.722 408.657 331.653 408.926 330.499 408.025C328.311 406.835 325.934 405.303 323.747 404.113C323.041 403.626 323.11 403.356 323.507 402.889C325.718 398.592 327.929 394.295 330.329 390.34C330.468 389.8 330.796 389.602 330.348 389.188C328.419 388.07 326.49 386.952 324.302 385.762C323.162 388.046 321.763 390.257 320.623 392.54C319.483 394.824 318.084 397.035 316.944 399.319C316.547 399.786 316.478 400.056 315.772 399.569C313.395 398.037 310.949 396.774 308.503 395.512C307.797 395.025 307.866 394.755 308.263 394.288C310.474 389.991 312.685 385.694 315.086 381.739C315.155 381.469 315.483 381.271 315.621 380.732C310.092 377.45 304.563 374.169 298.776 370.815C299.57 369.881 300.036 369.144 300.83 368.209C302.487 366.07 304.144 363.931 305.474 361.99C305.94 361.253 306.198 361.325 306.974 361.542C308.644 362.588 310.573 363.706 312.313 364.481C314.242 365.599 316.07 364.954 316.813 363.138C323.705 350.318 330.597 337.499 337.299 324.338C338.37 322.324 337.701 319.535 335.583 318.075C333.465 316.615 331.277 315.424 329.348 314.307C328.831 314.162 328.642 313.82 329.039 313.353C330.576 310.602 332.182 307.581 333.72 304.831C332.478 305.351 332.478 305.351 332.806 305.153ZM328.881 375.477C329.14 375.549 329.329 375.891 329.329 375.891C333.187 378.127 337.235 380.705 341.559 382.203C344.591 383.341 347.434 384.136 350.554 383.852C355.881 383.607 359.68 377.44 357.945 372.329C357.206 369.809 355.485 367.882 353.764 365.954C349.804 361.955 344.653 359.358 339.761 356.833C339.055 356.347 338.986 356.616 338.52 357.354C337.31 359.907 335.912 362.118 334.702 364.671C332.699 368.159 330.954 371.719 328.881 375.477ZM357.655 354.031C358.172 354.176 359.534 354.267 360.637 354.287C365.824 354.581 369.933 349.369 368.525 344.059C367.856 341.27 365.946 339.001 363.897 337.271C360.694 334.64 357.283 332.819 353.683 330.655C352.977 330.169 352.65 330.366 352.183 331.103C349.437 336.407 346.76 341.441 343.755 346.673C343.358 347.14 343.547 347.483 343.994 347.897C344.959 348.456 345.665 348.942 346.63 349.501C350.368 351.125 353.52 352.874 357.655 354.031Z" fill="#F7CD3A"/>
<path d="M994.084 80.12C997.123 80.3918 1000.11 80.3888 1003.15 80.6606C1006.19 80.9323 1009.19 80.9294 1012.23 81.2011C1013.06 81.3252 1013.28 81.0002 1013.4 80.1258C1013.63 75.2541 1013.91 70.6573 1014.15 65.7856C1014.27 64.9112 1014.48 64.5862 1015.32 64.7103C1018.1 65.0323 1020.56 65.1298 1023.29 65.177C1024.13 65.3011 1024.18 65.5758 1024.01 66.1756C1023.73 70.7724 1023.49 75.6441 1023.21 80.2409C1023.26 80.5157 1023.31 80.7904 1023.14 81.3902C1025.34 81.5379 1027.81 81.6353 1030.01 81.783C1030.27 81.7328 1030.44 81.1331 1030.65 80.8081C1030.82 77.0857 1031.03 73.638 1031.46 69.8654C1031.53 68.7162 1031.6 67.567 1031.67 66.4178C1031.57 65.8683 1031.79 65.5433 1032.36 65.7176C1035.14 66.0396 1037.87 66.0868 1040.91 66.3586C1041.17 66.3084 1041.22 66.5831 1041.48 66.5329C1041.32 70.2553 1041.1 73.703 1040.89 77.1506C1040.87 78.5746 1040.85 79.9986 1040.56 81.4728C1040.44 82.3472 1040.75 82.5718 1041.59 82.6958C1044.73 83.5171 1047.86 84.3384 1051 85.1597C1053.92 86.3059 1056.67 88.0519 1059 90.4478C1062.09 94.117 1063.12 98.4628 1062.84 103.06C1062.58 106.233 1062.01 109.181 1060.29 111.781C1058.99 113.731 1057.08 115.231 1055.12 116.457C1054.86 116.508 1054.64 116.833 1054.12 116.933C1055.31 117.556 1056.46 117.905 1057.66 118.528C1061.25 120.398 1063.89 123.019 1065.61 126.664C1066.67 129.586 1066.98 132.933 1066.72 136.106C1066.34 140.154 1065.6 143.702 1063.76 147.176C1061.49 151.3 1058.15 153.927 1054.03 155.28C1048.65 157.159 1043.29 157.614 1037.88 157.794C1037.04 157.67 1036.56 158.045 1036.44 158.92C1036.16 163.516 1035.93 168.388 1035.64 172.985C1035.57 174.134 1035.62 174.409 1034.21 174.11C1031.74 174.013 1028.97 173.691 1026.5 173.594C1025.66 173.469 1025.62 173.195 1025.78 172.595C1026.02 167.723 1026.25 162.852 1026.8 158.205C1026.7 157.655 1026.92 157.33 1026.34 157.156C1024.14 157.008 1021.94 156.86 1019.47 156.763C1019.38 159.336 1019.02 161.96 1018.93 164.533C1018.84 167.106 1018.48 169.729 1018.39 172.303C1018.22 172.902 1018.27 173.177 1017.43 173.053C1014.65 172.731 1011.93 172.684 1009.2 172.636C1008.36 172.512 1008.31 172.238 1008.48 171.638C1008.71 166.766 1008.95 161.895 1009.49 157.248C1009.45 156.973 1009.66 156.648 1009.57 156.098C1003.22 155.605 996.88 155.112 990.275 154.669C990.609 153.469 990.727 152.595 991.061 151.395C991.681 148.722 992.301 146.048 992.706 143.699C992.825 142.825 993.088 142.775 993.877 142.624C995.816 142.822 998.018 142.97 999.909 142.893C1002.11 143.04 1003.5 141.64 1003.42 139.667C1004.39 125.002 1005.36 110.336 1006.02 95.4468C1006.16 93.1483 1004.41 90.9267 1001.9 90.5545C999.382 90.1823 996.917 90.0848 994.715 89.9371C994.188 90.0375 993.877 89.813 994.044 89.2133C994.304 86.0404 994.517 82.5927 994.777 79.4198C993.869 80.445 993.869 80.445 994.084 80.12ZM1019.39 145.421C1019.65 145.371 1019.97 145.596 1019.97 145.596C1024.37 145.891 1029.09 146.411 1033.61 145.832C1036.81 145.504 1039.71 144.952 1042.41 143.3C1047.12 140.697 1048.03 133.427 1044.36 129.583C1042.66 127.637 1040.32 126.665 1037.97 125.693C1032.75 123.849 1027.03 123.805 1021.57 123.71C1020.74 123.586 1020.78 123.861 1020.67 124.736C1020.62 127.583 1020.26 130.207 1020.22 133.055C1019.84 137.102 1019.72 141.099 1019.39 145.421ZM1036.59 113.178C1037.12 113.078 1038.39 112.552 1039.39 112.076C1044.2 110.023 1045.77 103.476 1042.32 99.3078C1040.58 97.0862 1037.92 95.8897 1035.36 95.2428C1031.38 94.2974 1027.55 94.1763 1023.41 93.8307C1022.58 93.7066 1022.36 94.0316 1022.24 94.906C1021.94 100.927 1021.58 106.673 1021.01 112.744C1020.85 113.344 1021.16 113.568 1021.73 113.743C1022.83 113.816 1023.67 113.941 1024.77 114.014C1028.82 113.811 1032.38 113.982 1036.59 113.178Z" fill="#F7CD3A"/>
<path d="M824.71 9.07197C829.191 11.8006 833.791 14.0705 838.272 16.7992C842.754 19.5279 847.353 21.7978 851.835 24.5265C853.035 25.3541 853.593 25.0183 854.386 23.7648C858.146 16.4569 861.788 9.60785 865.549 2.29995C866.341 1.04648 866.899 0.710613 868.1 1.53822C872.142 4.14398 875.862 6.16801 880.022 8.31497C881.222 9.14258 881.105 9.60138 880.43 10.396C876.787 17.2451 873.027 24.553 869.384 31.4021C869.267 31.8609 869.149 32.3197 868.474 33.1144C871.754 35.0154 875.475 37.0395 878.755 38.9406C879.195 39.0635 879.87 38.2688 880.427 37.933C883.277 32.3373 886.009 27.2005 889.298 21.7278C890.209 20.0156 891.119 18.3033 892.03 16.591C892.265 15.6734 892.823 15.3376 893.584 16.0422C897.626 18.648 901.786 20.795 906.267 23.5236C906.707 23.6466 906.589 24.1054 907.029 24.2283C904.179 29.8239 901.447 34.9608 898.715 40.0976C897.687 42.2687 896.658 44.4397 895.191 46.4879C894.398 47.7413 894.719 48.3231 895.92 49.1507C900.166 52.797 904.412 56.4433 908.658 60.0896C912.347 64.0718 915.361 68.8486 917.26 74.2972C919.449 82.2856 918.004 89.7494 914.361 96.5985C911.747 101.277 908.811 105.373 904.353 108.06C901.009 110.075 897.022 110.927 893.152 111.32C892.713 111.197 892.155 111.533 891.276 111.287C892.681 113.155 894.204 114.564 895.609 116.432C899.823 122.037 902.044 128.067 902.153 134.982C901.737 140.275 899.884 145.657 897.27 150.335C893.863 156.267 890.252 161.158 885.001 165.098C878.635 169.71 871.657 171.201 864.389 170.152C854.805 168.946 846.25 165.57 837.813 161.735C836.612 160.907 835.615 161.12 834.822 162.374C831.18 169.223 827.42 176.531 823.777 183.38C822.867 185.092 822.749 185.551 820.787 184.018C817.066 181.994 813.024 179.389 809.304 177.365C808.103 176.537 808.221 176.078 808.896 175.284C812.656 167.976 816.417 160.668 820.499 153.942C820.734 153.024 821.292 152.688 820.53 151.984C817.25 150.082 813.969 148.181 810.249 146.157C808.31 150.041 805.931 153.801 803.992 157.684C802.053 161.568 799.674 165.328 797.735 169.212C797.06 170.006 796.943 170.465 795.742 169.637C791.7 167.032 787.54 164.885 783.38 162.738C782.179 161.91 782.297 161.451 782.972 160.657C786.732 153.349 790.493 146.041 794.575 139.315C794.693 138.856 795.25 138.52 795.485 137.602C786.083 132.022 776.68 126.442 766.838 120.738C768.188 119.149 768.981 117.896 770.331 116.306C773.149 112.669 775.967 109.031 778.228 105.73C779.021 104.476 779.46 104.599 780.779 104.968C783.62 106.746 786.901 108.647 789.86 109.967C793.141 111.868 796.249 110.77 797.513 107.681C809.233 85.8807 820.953 64.08 832.352 41.6975C834.173 38.2729 833.036 33.529 829.433 31.0462C825.831 28.5634 822.11 26.5394 818.83 24.6383C817.951 24.3924 817.629 23.8107 818.304 23.016C820.918 18.338 823.65 13.2011 826.264 8.52317C824.153 9.40784 824.153 9.40783 824.71 9.07197ZM818.036 128.666C818.476 128.789 818.797 129.37 818.797 129.37C825.359 133.173 832.242 137.557 839.596 140.105C844.753 142.039 849.588 143.392 854.894 142.909C863.952 142.492 870.412 132.005 867.462 123.312C866.206 119.027 863.279 115.749 860.351 112.472C853.617 105.671 844.858 101.254 836.539 96.9602C835.338 96.1326 835.22 96.5914 834.427 97.8449C832.371 102.187 829.992 105.947 827.935 110.29C824.528 116.221 821.561 122.275 818.036 128.666ZM866.97 92.1946C867.849 92.4404 870.164 92.5963 872.04 92.6292C880.862 93.1298 887.849 84.2655 885.455 75.2365C884.318 70.4926 881.069 66.6334 877.584 63.6918C872.137 59.2179 866.337 56.1204 860.215 52.4411C859.014 51.6135 858.457 51.9494 857.664 53.2028C852.993 62.223 848.44 70.7844 843.33 79.6816C842.655 80.4763 842.976 81.058 843.738 81.7627C845.378 82.7132 846.579 83.5408 848.219 84.4914C854.577 87.253 859.937 90.2276 866.97 92.1946Z" fill="#F7CD3A"/>
<path d="M146.555 -24.6366C151.567 -24.6133 156.464 -25.0332 161.475 -25.0099C166.487 -24.9866 171.384 -25.4065 176.395 -25.3832C177.783 -25.2962 178.094 -25.8581 178.177 -27.3064C177.941 -35.315 177.819 -42.8805 177.583 -50.8891C177.667 -52.3373 177.978 -52.8992 179.365 -52.8123C183.952 -52.6703 188 -52.8527 192.473 -53.1538C193.86 -53.0669 193.974 -52.6237 193.777 -51.6186C193.899 -44.0532 194.135 -36.0445 194.257 -28.479C194.37 -28.0359 194.484 -27.5927 194.287 -26.5877C197.911 -26.6513 201.959 -26.8337 205.583 -26.8973C206.008 -27.016 206.205 -28.0211 206.516 -28.583C206.31 -34.7003 206.219 -40.3744 206.438 -46.6104C206.408 -48.5018 206.377 -50.3931 206.347 -52.2845C206.119 -53.1708 206.43 -53.7327 207.393 -53.5271C211.98 -53.385 216.453 -53.6861 221.464 -53.6629C221.889 -53.7816 222.002 -53.3384 222.427 -53.4572C222.632 -47.3399 222.723 -41.6658 222.815 -35.9917C222.959 -33.6572 223.103 -31.3226 222.823 -28.8694C222.74 -27.4211 223.278 -27.0967 224.665 -27.0098C229.904 -26.1002 235.143 -25.1906 240.382 -24.281C245.31 -22.8095 250.041 -20.3329 254.15 -16.7326C259.677 -11.1539 261.922 -4.18211 262.044 3.38338C262.022 8.61433 261.461 13.5209 258.975 18.0161C257.11 21.3875 254.169 24.1101 251.114 26.3895C250.689 26.5082 250.378 27.0701 249.529 27.3076C251.569 28.1621 253.494 28.5734 255.534 29.4279C261.652 31.9914 266.3 35.9162 269.59 41.6454C271.691 46.2827 272.631 51.7193 272.609 56.9503C272.504 63.6294 271.746 69.541 269.176 75.4844C265.985 82.5517 260.838 87.3162 254.273 90.1024C245.698 93.9255 236.98 95.414 228.148 96.4594C226.76 96.3725 226.025 97.0531 225.942 98.5014C226.064 106.067 226.299 114.075 226.421 121.641C226.452 123.532 226.566 123.976 224.215 123.683C220.167 123.865 215.58 123.723 211.532 123.906C210.144 123.819 210.031 123.376 210.228 122.37C209.992 114.362 209.756 106.353 210.059 98.669C209.832 97.7826 210.142 97.2208 209.179 97.0151C205.556 97.0787 201.932 97.1424 197.883 97.3247C198.058 101.551 197.808 105.895 197.983 110.121C198.158 114.347 197.908 118.692 198.083 122.918C197.886 123.923 197.999 124.366 196.612 124.279C192.025 124.137 187.552 124.438 183.079 124.739C181.692 124.652 181.578 124.209 181.775 123.204C181.539 115.195 181.304 107.187 181.606 99.5025C181.493 99.0593 181.803 98.4974 181.576 97.6111C171.129 97.6832 160.682 97.7554 149.81 97.9463C150.204 95.9362 150.288 94.488 150.682 92.4779C151.356 88.0145 152.03 83.5511 152.394 79.6496C152.477 78.2014 152.902 78.0827 154.175 77.7264C157.375 77.7815 160.999 77.7179 164.084 77.3298C167.708 77.2662 169.8 74.7811 169.428 71.5603C169.146 47.4156 168.863 23.2709 168.043 -1.19814C167.982 -4.98088 164.835 -8.37558 160.673 -8.63635C156.511 -8.89713 152.462 -8.71476 148.839 -8.65112C147.989 -8.41364 147.451 -8.73805 147.648 -9.74311C147.671 -14.9741 147.579 -20.6482 147.601 -25.8791C146.245 -24.0747 146.245 -24.0747 146.555 -24.6366ZM196.305 78.7672C196.729 78.6485 197.268 78.9729 197.268 78.9729C204.515 78.8456 212.301 79.0428 219.632 77.4673C224.841 76.4855 229.511 75.1794 233.726 72.1006C241.11 67.1855 241.662 55.1566 235.172 49.3723C232.139 46.4207 228.174 45.1549 224.209 43.8891C215.429 41.5949 206.059 42.3159 197.113 42.9181C195.726 42.8312 195.839 43.2744 195.756 44.7226C196.045 49.3916 195.795 53.7363 196.083 58.4053C195.978 65.0845 196.297 71.6449 196.305 78.7672ZM220.363 23.5908C221.213 23.3533 223.222 22.3164 224.806 21.3983C232.417 17.3695 234.16 6.43266 227.981 0.086422C224.834 -3.30827 220.331 -4.89852 216.055 -5.60246C209.429 -6.59899 203.144 -6.26606 196.321 -6.25753C194.933 -6.34445 194.622 -5.78256 194.539 -4.33434C194.805 5.56567 194.958 15.0225 194.799 25.0413C194.602 26.0463 195.141 26.3708 196.103 26.5764C197.915 26.5446 199.303 26.6315 201.115 26.5997C207.71 25.7049 213.571 25.4907 220.363 23.5908Z" fill="#F7CD3A"/>
<path d="M1108.83 25.331C1113.84 25.3543 1118.73 24.9345 1123.75 24.9578C1128.76 24.9811 1133.65 24.5612 1138.67 24.5845C1140.05 24.6714 1140.36 24.1095 1140.45 22.6613C1140.21 14.6527 1140.09 7.08721 1139.85 -0.92143C1139.94 -2.36965 1140.25 -2.93155 1141.64 -2.84462C1146.22 -2.70259 1150.27 -2.88497 1154.74 -3.18609C1156.13 -3.09916 1156.24 -2.656 1156.05 -1.65095C1156.17 5.91454 1156.4 13.9231 1156.53 21.4886C1156.64 21.9318 1156.75 22.3749 1156.56 23.38C1160.18 23.3164 1164.23 23.134 1167.85 23.0703C1168.28 22.9516 1168.48 21.9466 1168.79 21.3846C1168.58 15.2674 1168.49 9.5933 1168.71 3.35729C1168.68 1.46592 1168.65 -0.425453 1168.62 -2.31683C1168.39 -3.20314 1168.7 -3.76504 1169.66 -3.55937C1174.25 -3.41733 1178.72 -3.71846 1183.73 -3.69516C1184.16 -3.81391 1184.27 -3.37075 1184.7 -3.48949C1184.9 2.62778 1184.99 8.30189 1185.09 13.976C1185.23 16.3105 1185.37 18.645 1185.09 21.0983C1185.01 22.5465 1185.55 22.8709 1186.94 22.9578C1192.17 23.8675 1197.41 24.7771 1202.65 25.6867C1207.58 27.1582 1212.31 29.6347 1216.42 33.2351C1221.95 38.8138 1224.19 45.7855 1224.31 53.351C1224.29 58.582 1223.73 63.4885 1221.24 67.9837C1219.38 71.3551 1216.44 74.0777 1213.38 76.3571C1212.96 76.4759 1212.65 77.0378 1211.8 77.2753C1213.84 78.1298 1215.76 78.5411 1217.8 79.3956C1223.92 81.9591 1228.57 85.8839 1231.86 91.6131C1233.96 96.2503 1234.9 101.687 1234.88 106.918C1234.77 113.597 1234.02 119.509 1231.45 125.452C1228.26 132.519 1223.11 137.284 1216.54 140.07C1207.97 143.893 1199.25 145.382 1190.42 146.427C1189.03 146.34 1188.3 147.021 1188.21 148.469C1188.33 156.034 1188.57 164.043 1188.69 171.609C1188.72 173.5 1188.84 173.943 1186.49 173.651C1182.44 173.833 1177.85 173.691 1173.8 173.873C1172.41 173.786 1172.3 173.343 1172.5 172.338C1172.26 164.329 1172.03 156.321 1172.33 148.637C1172.1 147.75 1172.41 147.188 1171.45 146.983C1167.83 147.046 1164.2 147.11 1160.15 147.292C1160.33 151.518 1160.08 155.863 1160.25 160.089C1160.43 164.315 1160.18 168.659 1160.35 172.885C1160.16 173.89 1160.27 174.333 1158.88 174.247C1154.3 174.105 1149.82 174.406 1145.35 174.707C1143.96 174.62 1143.85 174.177 1144.05 173.172C1143.81 165.163 1143.57 157.154 1143.88 149.47C1143.76 149.027 1144.07 148.465 1143.85 147.579C1133.4 147.651 1122.95 147.723 1112.08 147.914C1112.47 145.904 1112.56 144.456 1112.95 142.446C1113.63 137.982 1114.3 133.519 1114.66 129.617C1114.75 128.169 1115.17 128.05 1116.45 127.694C1119.64 127.749 1123.27 127.686 1126.35 127.297C1129.98 127.234 1132.07 124.749 1131.7 121.528C1131.42 97.3833 1131.13 73.2386 1130.31 48.7695C1130.25 44.9868 1127.11 41.5921 1122.94 41.3313C1118.78 41.0705 1114.73 41.2529 1111.11 41.3165C1110.26 41.554 1109.72 41.2296 1109.92 40.2245C1109.94 34.9936 1109.85 29.3195 1109.87 24.0885C1108.51 25.893 1108.51 25.8929 1108.83 25.331ZM1158.58 128.735C1159 128.616 1159.54 128.941 1159.54 128.941C1166.79 128.813 1174.57 129.01 1181.9 127.435C1187.11 126.453 1191.78 125.147 1196 122.068C1203.38 117.153 1203.93 105.124 1197.44 99.3399C1194.41 96.3884 1190.44 95.1226 1186.48 93.8567C1177.7 91.5625 1168.33 92.2835 1159.38 92.8858C1158 92.7989 1158.11 93.242 1158.03 94.6902C1158.31 99.3593 1158.06 103.704 1158.35 108.373C1158.25 115.052 1158.57 121.613 1158.58 128.735ZM1182.63 73.5584C1183.48 73.3209 1185.49 72.2841 1187.08 71.3659C1194.69 67.3372 1196.43 56.4003 1190.25 50.0541C1187.1 46.6594 1182.6 45.0691 1178.32 44.3652C1171.7 43.3687 1165.41 43.7016 1158.59 43.7101C1157.2 43.6232 1156.89 44.1851 1156.81 45.6333C1157.08 55.5333 1157.23 64.9902 1157.07 75.0089C1156.87 76.014 1157.41 76.3384 1158.37 76.5441C1160.19 76.5123 1161.57 76.5992 1163.38 76.5674C1169.98 75.6725 1175.84 75.4583 1182.63 73.5584Z" fill="#F7CD3A"/>
</g>
</svg>
