<svg width="26" height="26" viewBox="0 0 26 26" fill="none" xmlns="http://www.w3.org/2000/svg">
<g clip-path="url(#clip0_9_241)">
<path d="M24.9167 12.9892L22.2734 9.96667L22.6417 5.96917L18.7309 5.08083L16.6834 1.625L13 3.20667L9.31671 1.625L7.26921 5.08083L3.35837 5.95833L3.72671 9.96667L1.08337 12.9892L3.72671 16.0117L3.35837 20.02L7.26921 20.9083L9.31671 24.375L13 22.7825L16.6834 24.3642L18.7309 20.9083L22.6417 20.02L22.2734 16.0225L24.9167 12.9892ZM20.6375 14.5925L20.0309 15.2967L20.1175 16.2175L20.3125 18.33L18.2542 18.7958L17.3442 19.0017L16.8675 19.8033L15.795 21.6233L13.8667 20.7892L13 20.4208L12.1442 20.7892L10.2159 21.6233L9.14337 19.8142L8.66671 19.0125L7.75671 18.8067L5.69837 18.3408L5.89337 16.2175L5.98004 15.2967L5.37337 14.5925L3.97587 13L5.37337 11.3967L5.98004 10.6925L5.88254 9.76083L5.68754 7.65917L7.74587 7.19333L8.65587 6.9875L9.13254 6.18583L10.205 4.36583L12.1334 5.2L13 5.56833L13.8559 5.2L15.7842 4.36583L16.8567 6.18583L17.3334 6.9875L18.2434 7.19333L20.3017 7.65917L20.1067 9.77167L20.02 10.6925L20.6267 11.3967L22.0242 12.9892L20.6375 14.5925Z" fill="#715BF8"/>
<path d="M10.9309 14.8958L8.41754 12.3717L6.81421 13.9858L10.9309 18.1133L18.8825 10.14L17.2792 8.52582L10.9309 14.8958Z" fill="#715BF8"/>
</g>
<defs>
<clipPath id="clip0_9_241">
<rect width="26" height="26" fill="white"/>
</clipPath>
</defs>
</svg>
