<svg width="26" height="27" viewBox="0 0 26 27" fill="none" xmlns="http://www.w3.org/2000/svg">
<g clip-path="url(#clip0_21_141)">
<mask id="mask0_21_141" style="mask-type:luminance" maskUnits="userSpaceOnUse" x="0" y="0" width="26" height="27">
<path d="M26 0.5H0V26.5H26V0.5Z" fill="white"/>
</mask>
<g mask="url(#mask0_21_141)">
<path d="M24.9167 13.4892L22.2734 10.4667L22.6417 6.46917L18.7309 5.58083L16.6834 2.125L13 3.70667L9.31671 2.125L7.26921 5.58083L3.35837 6.45833L3.72671 10.4667L1.08337 13.4892L3.72671 16.5117L3.35837 20.52L7.26921 21.4083L9.31671 24.875L13 23.2825L16.6834 24.8642L18.7309 21.4083L22.6417 20.52L22.2734 16.5225L24.9167 13.4892ZM20.6375 15.0925L20.0309 15.7967L20.1175 16.7175L20.3125 18.83L18.2542 19.2958L17.3442 19.5017L16.8675 20.3033L15.795 22.1233L13.8667 21.2892L13 20.9208L12.1442 21.2892L10.2159 22.1233L9.14337 20.3142L8.66671 19.5125L7.75671 19.3067L5.69837 18.8408L5.89337 16.7175L5.98004 15.7967L5.37337 15.0925L3.97587 13.5L5.37337 11.8967L5.98004 11.1925L5.88254 10.2608L5.68754 8.15917L7.74587 7.69333L8.65587 7.4875L9.13254 6.68583L10.205 4.86583L12.1334 5.7L13 6.06833L13.8559 5.7L15.7842 4.86583L16.8567 6.68583L17.3334 7.4875L18.2434 7.69333L20.3017 8.15917L20.1067 10.2717L20.02 11.1925L20.6267 11.8967L22.0242 13.4892L20.6375 15.0925Z" fill="#F7931A"/>
<path d="M10.9309 15.3958L8.41754 12.8717L6.81421 14.4858L10.9309 18.6133L18.8825 10.64L17.2792 9.02582L10.9309 15.3958Z" fill="#F7931A"/>
</g>
</g>
<defs>
<clipPath id="clip0_21_141">
<rect width="26" height="26" fill="white" transform="translate(0 0.5)"/>
</clipPath>
</defs>
</svg>
